<svg xmlns="http://www.w3.org/2000/svg" xmlns:xlink="http://www.w3.org/1999/xlink" width="465.118" height="367.121" viewBox="0 0 465.118 367.121">
  <defs>
    <linearGradient id="linear-gradient" x1="0.5" y1="1.106" x2="0.5" y2="-0.208" gradientUnits="objectBoundingBox">
      <stop offset="0.059" stop-color="#c4c4c6"/>
      <stop offset="0.115" stop-color="#4d4d4d"/>
      <stop offset="0.122" stop-color="#636363"/>
      <stop offset="0.134" stop-color="#7d7d7e"/>
      <stop offset="0.146" stop-color="#929293"/>
      <stop offset="0.16" stop-color="#a0a0a2"/>
      <stop offset="0.176" stop-color="#a9a9ab"/>
      <stop offset="0.201" stop-color="#acacae"/>
      <stop offset="0.281" stop-color="#fff"/>
      <stop offset="0.518" stop-color="#b1b2b6"/>
      <stop offset="0.623" stop-color="#acadb1"/>
      <stop offset="0.945" stop-color="#8c8d91"/>
      <stop offset="1" stop-color="#dedee1"/>
    </linearGradient>
    <linearGradient id="linear-gradient-2" y1="0.5" x2="1" y2="0.5" gradientUnits="objectBoundingBox">
      <stop offset="0.059" stop-color="#c4c4c6"/>
      <stop offset="0.281" stop-color="#fff"/>
      <stop offset="0.737" stop-color="#dedee1"/>
      <stop offset="0.986" stop-color="#c4c4c6"/>
    </linearGradient>
    <linearGradient id="linear-gradient-3" x1="0.5" y1="1" x2="0.5" gradientUnits="objectBoundingBox">
      <stop offset="0" stop-color="#fff" stop-opacity="0"/>
      <stop offset="1"/>
    </linearGradient>
  </defs>
  <g id="blog" transform="translate(-764.311 -212.439)">
    <g id="Group_5588" data-name="Group 5588" transform="translate(268.311 -334.561)">
      <g id="Group_5580" data-name="Group 5580" transform="translate(705.157 646.288)">
        <path id="Path_5897" data-name="Path 5897" d="M824.212,785.4a1.015,1.015,0,0,0-.679.233l-.009.008a.381.381,0,0,0,.266.657h.877a.374.374,0,0,0,.246-.656A1.032,1.032,0,0,0,824.212,785.4Z" transform="translate(-793.124 -710.343)" fill="#b3b3b3"/>
        <path id="Path_5898" data-name="Path 5898" d="M851.437,773.294h-66.58a.381.381,0,0,0-.382.382v20.016a.381.381,0,0,0,.382.382h66.58a.382.382,0,0,0,.382-.382V773.676A.382.382,0,0,0,851.437,773.294Zm-42.359,13.844a.382.382,0,0,1-.382.383H807.09a.382.382,0,0,1-.319-.172l-2.857-4.322a.382.382,0,0,0-.7.211v3.9a.382.382,0,0,1-.382.383H801.4a.382.382,0,0,1-.383-.383V778.9a.382.382,0,0,1,.383-.382h1.6a.383.383,0,0,1,.319.172l2.856,4.342a.382.382,0,0,0,.7-.21V778.9a.382.382,0,0,1,.382-.382H808.7a.382.382,0,0,1,.382.382Zm8.33-3.03a.382.382,0,0,1-.383.361h-4.148a.384.384,0,0,0-.36.515,1.258,1.258,0,0,0,.326.505,1.3,1.3,0,0,0,.93.353,1.155,1.155,0,0,0,1.041-.515.387.387,0,0,1,.322-.179h1.574a.381.381,0,0,1,.352.533,3.226,3.226,0,0,1-.461.738,3.288,3.288,0,0,1-1.175.886,3.783,3.783,0,0,1-1.577.32,3.845,3.845,0,0,1-1.872-.449,3.194,3.194,0,0,1-1.283-1.283,3.957,3.957,0,0,1-.463-1.95,4.022,4.022,0,0,1,.454-1.95,3.154,3.154,0,0,1,1.277-1.283,3.864,3.864,0,0,1,1.887-.448,3.82,3.82,0,0,1,1.848.437,3.127,3.127,0,0,1,1.262,1.242,3.783,3.783,0,0,1,.455,1.886Q817.415,783.965,817.408,784.108Zm11.308-3.262-1.732,6.393a.381.381,0,0,1-.369.282h-1.83a.381.381,0,0,1-.371-.292l-.695-2.85a.382.382,0,0,0-.742,0l-.717,2.856a.382.382,0,0,1-.37.289h-1.822a.382.382,0,0,1-.369-.281l-1.742-6.393a.382.382,0,0,1,.369-.483H819.7a.382.382,0,0,1,.375.308l.611,3.084a.382.382,0,0,0,.747.014l.734-3.112a.382.382,0,0,1,.372-.294h1.717a.383.383,0,0,1,.372.293l.74,3.093a.382.382,0,0,0,.746-.015l.6-3.063a.381.381,0,0,1,.375-.309h1.253A.382.382,0,0,1,828.715,780.846Zm6.422,5.722a2.355,2.355,0,0,1-1.015.776,3.9,3.9,0,0,1-1.533.282,4.14,4.14,0,0,1-1.667-.32,2.87,2.87,0,0,1-1.155-.881,2.339,2.339,0,0,1-.386-.764.383.383,0,0,1,.369-.487h1.4a.4.4,0,0,1,.372.233.867.867,0,0,0,.29.37,1.222,1.222,0,0,0,.758.23,1.065,1.065,0,0,0,.633-.161.49.49,0,0,0-.1-.871,6.386,6.386,0,0,0-1.038-.327,9.4,9.4,0,0,1-1.283-.379,2.2,2.2,0,0,1-.886-.63,1.711,1.711,0,0,1-.37-1.16,1.988,1.988,0,0,1,.338-1.123,2.3,2.3,0,0,1,1-.8,3.851,3.851,0,0,1,1.572-.294,3.148,3.148,0,0,1,2.122.667,2.517,2.517,0,0,1,.8,1.283.385.385,0,0,1-.369.487h-1.263a.389.389,0,0,1-.366-.232.85.85,0,0,0-.267-.357,1.135,1.135,0,0,0-.726-.219,1.024,1.024,0,0,0-.589.146.473.473,0,0,0-.2.405.491.491,0,0,0,.326.461,5.024,5.024,0,0,0,1.021.309,10.827,10.827,0,0,1,1.295.405,2.2,2.2,0,0,1,.88.641,1.828,1.828,0,0,1,.391,1.186A1.9,1.9,0,0,1,835.137,786.568Z" transform="translate(-782.665 -707.089)" fill="#b3b3b3"/>
        <path id="Path_5899" data-name="Path 5899" d="M815.849,847.415h16.834l8.008-42.224-32.163-.2Z" transform="translate(-789.128 -715.607)" fill="#b3b3b3"/>
        <path id="Path_5900" data-name="Path 5900" d="M849.348,710.519h-.238a31.9,31.9,0,0,0-63.256,0h-.238A3.62,3.62,0,0,0,782,714.134v1.4a3.619,3.619,0,0,0,3.616,3.615h.284a31.9,31.9,0,0,0,63.165,0h.284a3.619,3.619,0,0,0,3.615-3.615v-1.4A3.619,3.619,0,0,0,849.348,710.519Zm-31.866-23.5a27.691,27.691,0,0,1,27.334,23.5H790.149A27.688,27.688,0,0,1,817.482,687.019Zm0,55.293A27.688,27.688,0,0,1,790.2,719.153h54.558A27.689,27.689,0,0,1,817.482,742.312Zm33.355-26.774a1.491,1.491,0,0,1-1.488,1.489H785.616a1.491,1.491,0,0,1-1.489-1.489v-1.4a1.49,1.49,0,0,1,1.489-1.489h63.733a1.49,1.49,0,0,1,1.488,1.489Z" transform="translate(-782 -682.766)" fill="#b3b3b3"/>
      </g>
      <path id="Path_5901" data-name="Path 5901" d="M843.456,1009.143A13.833,13.833,0,0,1,832,995.65l-.731-75.15h-92.1l-.731,75.15a13.833,13.833,0,0,1-11.452,13.493l-20.1,3.5v1.828H863.553v-1.828Z" transform="translate(-56.663 -100.353)" fill="url(#linear-gradient)"/>
      <path id="Path_5902" data-name="Path 5902" d="M954.419,547H502.706A6.706,6.706,0,0,0,496,553.706v271.07a6.706,6.706,0,0,0,6.706,6.706H954.419a6.7,6.7,0,0,0,6.7-6.706V553.706A6.7,6.7,0,0,0,954.419,547Zm5.236,244.289H497.463V556.873a7.949,7.949,0,0,1,7.942-7.942H951.713a7.949,7.949,0,0,1,7.942,7.942Z" transform="translate(0 0)" fill="url(#linear-gradient-2)"/>
      <rect id="Rectangle_2025" data-name="Rectangle 2025" width="92.877" height="8.044" transform="translate(682.12 831.482)" opacity="0.63" fill="url(#linear-gradient-3)"/>
      <g id="Group_5581" data-name="Group 5581" transform="translate(526.715 594.536)">
        <path id="Path_5903" data-name="Path 5903" d="M624.222,612H540.267A2.27,2.27,0,0,0,538,614.267v53.24a2.27,2.27,0,0,0,2.267,2.267h83.955a2.27,2.27,0,0,0,2.267-2.267v-53.24A2.27,2.27,0,0,0,624.222,612Zm-64.771,56.311,17.309-29.983,6.338,10.984-10.965,19Zm58.276,0H573.821l21.953-38.029Zm7.3-.8a.805.805,0,0,1-.8.8h-4.807l-23.641-40.954-11.83,20.494L576.76,635.4l-19,32.91h-17.5a.805.805,0,0,1-.8-.8v-53.24a.805.805,0,0,1,.8-.8h83.955a.805.805,0,0,1,.8.8Z" transform="translate(-538 -612)" fill="#b3b3b3"/>
        <path id="Path_5904" data-name="Path 5904" d="M554.35,622.5a5.851,5.851,0,1,0,5.851,5.851A5.858,5.858,0,0,0,554.35,622.5Zm0,10.238a4.388,4.388,0,1,1,4.388-4.388A4.392,4.392,0,0,1,554.35,632.738Z" transform="translate(-540.821 -614.821)" fill="#b3b3b3"/>
      </g>
      <g id="Group_5585" data-name="Group 5585" transform="translate(799.496 580.973)">
        <rect id="Rectangle_2026" data-name="Rectangle 2026" width="139.576" height="178.109" rx="2.02" transform="translate(0 0)" fill="none" stroke="#b3b3b3" stroke-miterlimit="10" stroke-width="1"/>
        <g id="Group_5582" data-name="Group 5582" transform="translate(10.276 9.419)">
          <rect id="Rectangle_2027" data-name="Rectangle 2027" width="119.025" height="8.563" fill="#b3b3b3"/>
        </g>
        <line id="Line_23" data-name="Line 23" x2="107.893" transform="translate(9.942 67.54)" fill="none" stroke="#b3b3b3" stroke-miterlimit="10" stroke-width="5"/>
        <line id="Line_24" data-name="Line 24" x2="71.072" transform="translate(9.942 83.274)" fill="none" stroke="#b3b3b3" stroke-miterlimit="10" stroke-width="5"/>
        <line id="Line_25" data-name="Line 25" x2="66.791" y2="0.428" transform="translate(9.942 99.008)" fill="none" stroke="#b3b3b3" stroke-miterlimit="10" stroke-width="5"/>
        <line id="Line_26" data-name="Line 26" x2="119.514" transform="translate(9.942 163.057)" fill="none" stroke="#b3b3b3" stroke-miterlimit="10" stroke-width="5"/>
        <line id="Line_27" data-name="Line 27" x2="107.371" y2="0.251" transform="translate(9.942 147.072)" fill="none" stroke="#b3b3b3" stroke-miterlimit="10" stroke-width="5"/>
        <line id="Line_28" data-name="Line 28" x2="79.969" y2="0.006" transform="translate(9.942 131.332)" fill="none" stroke="#b3b3b3" stroke-miterlimit="10" stroke-width="5"/>
        <line id="Line_29" data-name="Line 29" y1="0.428" x2="66.791" transform="translate(9.942 115.17)" fill="none" stroke="#b3b3b3" stroke-miterlimit="10" stroke-width="5"/>
        <g id="Group_5583" data-name="Group 5583" transform="translate(88.198 77.923)">
          <path id="Path_5905" data-name="Path 5905" d="M1072.7,700.005v25.509l-7.578-13.127-11.774,20.4L1048,723.519l-10.156,17.588H1031.6v-41.1Z" transform="translate(-1031.602 -700.005)" fill="none" stroke="#b3b3b3" stroke-miterlimit="10" stroke-width="1"/>
          <path id="Path_5906" data-name="Path 5906" d="M1055.646,741.423l-4.8,8.323h-10.7l10.156-17.588Z" transform="translate(-1033.896 -708.644)" fill="none" stroke="#b3b3b3" stroke-miterlimit="10" stroke-width="1"/>
          <path id="Path_5907" data-name="Path 5907" d="M1078.93,730.064v15.593h-24.156l4.8-8.323,11.774-20.4Z" transform="translate(-1037.828 -704.554)" fill="none" stroke="#b3b3b3" stroke-miterlimit="10" stroke-width="1"/>
        </g>
        <g id="Group_5584" data-name="Group 5584" transform="translate(10.087 30.987)">
          <path id="Path_5908" data-name="Path 5908" d="M951.657,635.826l-1.545,10.663h-3.278l-.3-8.026-4.484-.451-3.089,23.359,5.161.49-.189,1.959h-16.2l.263-1.959,4.559-.49,3.127-23.359-4.483.451-3.014,8.026h-3.391l1.809-10.663Z" transform="translate(-924.793 -635.826)" fill="#b3b3b3"/>
        </g>
      </g>
      <path id="Path_5909" data-name="Path 5909" d="M577.128,787.571l-.817.817-17.44,17.44-17.441-17.44-.818-.817c-.062-.062-.123-.124-.18-.185a12.331,12.331,0,0,1,17.435-17.435c.062.056.124.118.185.18l.818.817.817-.817a12.332,12.332,0,0,1,17.44,17.44Z" transform="translate(-11.016 -58.981)" fill="none" stroke="#707070" stroke-miterlimit="10" stroke-width="2"/>
      <g id="Group_5586" data-name="Group 5586" transform="translate(679.547 594.985)">
        <path id="Path_5910" data-name="Path 5910" d="M845.349,613.617l-.005,0-.02-.016c-.1-.088-.21-.17-.319-.246l-.034-.022c-.039-.027-.078-.051-.118-.076-.058-.037-.115-.075-.174-.108l-.044-.023c-.047-.026-.094-.05-.141-.074s-.094-.049-.142-.071c-.012-.006-.025-.009-.036-.015-.064-.028-.128-.054-.192-.079-.034-.013-.067-.029-.1-.041l-.018-.005q-.156-.055-.315-.1l-.005,0-.07-.015c-.086-.02-.171-.038-.257-.053l-.019,0c-.045-.007-.091-.012-.138-.018-.065-.008-.13-.016-.2-.021l-.02,0c-.06,0-.119-.005-.179-.007s-.143-.005-.214,0h-.021l-.254.008a4.012,4.012,0,0,0-1.188.22l-23.238,7.982-.012-.391H816.62l-.026,0h-.919l-.123,0,.1,3.04h0l.254-.008.122-.056.007,0,.007,0,.008,0,.007,0,.007,0,.007,0,.007,0,.007,0,.011-.005.007,0,.008,0,.007,0,.007,0,.008,0,.007,0,.007,0,.007,0,.007,0,.007,0,.011,0,.007,0,.007,0,.007,0,.007,0,.007,0,.008,0,.007,0,.007,0,.007,0,.007,0,.011-.005.007,0,.007,0,.007,0,.008,0,.007,0,.008,0,.007,0,.007,0,.007,0,.007,0,.011-.005.007,0,.007,0,.007,0,.007,0,.007,0,.008,0,.007,0,.007,0,.007,0,.007,0,.011-.005.007,0,.007,0,.007,0,.007,0,.007,0,.007,0,.03-.013.026-.012.029-.013.03-.014.029-.013.026-.012.03-.014.029-.013.026-.012.03-.013.029-.014.026-.012.03-.013.029-.014.025-.012.03-.013.029-.013.026-.012.03-.014.029-.013.026-.012.03-.014.029-.013.026-.012.03-.014.029-.013.026-.012.03-.013.029-.014.029-.013.026-.012.029-.014.029-.013.018-.008.019-.009.018-.008.018-.009.018-.008.018-.009.019-.008.022-.01.018-.009.018-.008.019-.009.018-.008.018-.009.018-.008.018-.008.019-.009.022-.01.018-.008.018-.009.018-.008.019-.009.018-.008.018-.009.018-.008.019-.009.022-.01.018-.009.026-.012h0l-.025-.8,23.722-8.148a3.18,3.18,0,0,1,.852-.165,3.248,3.248,0,0,1,2.07.8l.25.215.254-.008.529-.67Z" transform="translate(-765.405 -612.614)" fill="#b3b3b3"/>
        <path id="Path_5911" data-name="Path 5911" d="M781.724,625.191a6.61,6.61,0,0,0-3.09.869l.064,2.039c.08-.067.164-.128.248-.19a5.048,5.048,0,0,1,2.834-1c.082,0,.164,0,.245,0s.169,0,.252.01c.067,0,.133.012.2.019s.145.017.218.029.137.024.2.037.135.028.2.044.135.036.2.055.133.039.2.061.129.046.192.07.137.052.2.081.12.054.18.083.145.07.216.108c.055.03.11.061.164.092.082.048.163.1.243.151s.151.1.224.151l0-.1,0-.082-.058-1.859a6.6,6.6,0,0,0-3.012-.67C781.809,625.2,781.766,625.19,781.724,625.191Z" transform="translate(-755.486 -615.993)" fill="#b3b3b3"/>
        <path id="Path_5912" data-name="Path 5912" d="M772.862,625.017c-.047.007-.094.018-.142.027-.1.017-.194.034-.289.057-.056.015-.111.034-.167.05-.085.025-.17.05-.252.08-.059.021-.115.046-.172.07-.078.032-.157.064-.233.1-.057.028-.114.059-.17.09-.073.04-.146.08-.216.123-.056.034-.11.072-.164.109s-.135.094-.2.144-.1.083-.156.126-.124.108-.185.165-.1.094-.145.143c-.026.027-.05.055-.075.082-.058.063-.118.123-.173.189l-.445.545c0-.069.007-.137,0-.206l-.135-4.305-.068-2.181c0-.018,0-.034,0-.052s-.005-.064-.007-.1c-.005-.057-.01-.115-.018-.17,0-.011,0-.022-.006-.034s-.007-.035-.009-.053a2.9,2.9,0,0,0-.065-.287c-.005-.017-.01-.035-.015-.052s-.006-.023-.01-.034c-.018-.057-.039-.113-.061-.168-.013-.033-.024-.067-.038-.1-.028-.064-.059-.125-.091-.187-.012-.022-.021-.044-.033-.066a2.778,2.778,0,0,0-.148-.237c-.012-.018-.026-.034-.039-.051-.042-.057-.085-.113-.131-.168l-.014-.015-.027-.029a2.524,2.524,0,0,0-.216-.216l-.038-.034-.026-.023c-.045-.037-.091-.072-.138-.107-.022-.016-.043-.033-.066-.048l-.019-.013c-.031-.021-.064-.041-.1-.061l-.1-.057-.025-.015c-.027-.015-.056-.028-.083-.042s-.064-.031-.1-.045c-.014-.007-.028-.014-.042-.02l-.082-.033-.078-.027c-.024-.008-.048-.018-.072-.025l-.078-.024-.051-.012c-.044-.011-.087-.022-.131-.031l-.053-.011-.02,0c-.029-.005-.06-.007-.09-.011l5.695-1.956a2.811,2.811,0,0,1,2.922.636l.249.215.254-.008.529-.67-.249-.215-.005,0-.021-.017c-.1-.088-.211-.169-.32-.246l-.034-.022c-.038-.026-.078-.05-.117-.075-.058-.037-.115-.075-.175-.109l-.043-.023c-.047-.026-.094-.051-.142-.074s-.094-.049-.141-.071l-.037-.015c-.064-.028-.128-.055-.193-.08-.033-.013-.066-.028-.1-.04l-.018-.005c-.1-.036-.208-.07-.314-.1H774.9c-.023-.007-.047-.01-.07-.015-.085-.02-.17-.039-.256-.053l-.019,0c-.046-.007-.092-.012-.137-.018-.065-.009-.13-.017-.2-.022l-.021,0c-.06,0-.12-.005-.179-.007s-.143-.005-.214,0h-.022l-.254.008a4.029,4.029,0,0,0-1.188.219l-8.243,2.832-12,.375-.254.008a2.707,2.707,0,0,0-2.551,2.845l.058,1.836-.034.011-.017-.538-.124,0h-2.2l.068,2.168.026.01.013,0,.006,0,0,0,.018.007.019.007.019.007.019.007.014.005.005,0,.007,0,.012.005.019.007.013.005h.005l.007,0,.012,0,.009,0,.014.005.012,0,.007,0,.006,0,.013.005.019.007.01,0,.009,0,.019.007.019.007.019.007h0l.018.006.013.005.01,0,.014.005.005,0h0l.016.006.019.007.019.007.019.007h0v0l.015.005.019.007.022.009.008,0h0v0l.026.01.027.01.03.012.03.011.031.012.01,0,.016.006.031.012.03.012.026.01.031.011.03.012.026.01.024.009.007,0,.03.012.026.01.031.011.015.006.015.006.026.01.031.012.03.012.016.006.01,0,.031.012.03.012.026.01.015.005.016.007.03.012.026.009.023.009.008,0,.03.012.031.012.017.007.01,0,.03.012.008,0,.007,0,.007,0h0l.008,0,.007,0,.007,0,.012,0,.007,0,.008,0,.007,0,.007,0,.008,0,.007,0,.007,0,.008,0h.007v0l.007,0,.012,0,.007,0,.008,0h.007v0l.007,0,.008,0,.007,0h.007v0h0l.006,0,.007,0,.008,0,.011,0,.007,0,.008,0,.008,0,.007,0,.008,0,.007,0,.007,0,.008,0,.007,0,.008,0,.011,0,.008,0,.008,0h.007v0l.007,0,.008,0,.007,0,.008,0,.008,0h.007v0l.008,0,.011,0,.007,0,.008,0h.007v0l.008,0,.007,0,.007,0,.008,0,.007,0,.125.047.254-.008-.047-1.514.034-.012.146,4.682a2.71,2.71,0,0,0,2.724,2.68l13.676-.428.254-.008a3.513,3.513,0,0,0,2.187-.862,3.921,3.921,0,0,0,.3-.293l0,0a3.833,3.833,0,0,0,.283-.348l.009-.014c.072-.1.141-.206.2-.314l0-.005c.005-.01.009-.021.015-.031.047-.084.089-.17.129-.258.009-.019.02-.037.028-.057s.027-.065.041-.1.031-.087.048-.13.038-.1.054-.146c.01-.03.02-.059.029-.089s.007-.032.012-.048c.027-.1.052-.191.072-.288,0-.01,0-.018.007-.027,0-.024.007-.048.012-.072.012-.067.018-.134.026-.2,0-.034.01-.067.014-.1h.018l.695-.851c.053-.064.108-.127.165-.188.026-.029.056-.054.084-.083.047-.048.1-.1.144-.142s.122-.112.185-.165.1-.086.156-.126.133-.1.2-.145.108-.073.163-.107c.071-.044.144-.084.217-.124.056-.031.112-.062.169-.09.077-.037.154-.069.233-.1.057-.023.114-.049.172-.07.083-.03.167-.055.252-.08.055-.016.11-.035.167-.049.1-.024.192-.041.289-.058.047-.009.094-.02.142-.027.1-.014.206-.02.309-.027-.041,0-.082,0-.123,0A4.2,4.2,0,0,0,772.862,625.017Zm-11.539-6.234-10.891,3.741-.047-1.5c0-.047,0-.1,0-.143s.007-.108.013-.161c0-.021.007-.042.01-.063l.005-.03c0-.019.005-.039.01-.057.01-.049.021-.1.035-.146s.028-.094.045-.14h0c.018-.049.038-.1.06-.144s.05-.1.078-.149l.014-.022.019-.029c.023-.036.045-.073.07-.108a1.736,1.736,0,0,1,.11-.135c.009-.011.017-.022.026-.032l.01-.013c.042-.045.092-.083.138-.124s.072-.071.113-.1a1.731,1.731,0,0,1,.179-.11c.04-.023.078-.052.12-.072a1.741,1.741,0,0,1,.22-.079c.038-.012.074-.031.113-.04a1.7,1.7,0,0,1,.359-.05Zm7.278,8.161a2.955,2.955,0,0,1-1.011,2.335,2.7,2.7,0,0,1-1.681.659l-13.421.42h-.039q-.082,0-.162-.007c-.05,0-.1-.01-.148-.019l-.012,0-.012,0c-.039-.007-.08-.015-.118-.026s-.092-.026-.137-.042c-.022-.007-.042-.017-.065-.026l-.027-.011c-.015-.006-.031-.011-.045-.018-.047-.021-.094-.044-.139-.069s-.066-.041-.1-.062l-.023-.014-.021-.013a1.824,1.824,0,0,1-.158-.121c-.019-.016-.034-.036-.053-.052s-.048-.047-.072-.072-.047-.043-.067-.067-.034-.051-.053-.075a1.906,1.906,0,0,1-.126-.181c-.029-.046-.055-.093-.08-.142a1.8,1.8,0,0,1-.087-.208c-.013-.033-.031-.062-.041-.1s-.012-.056-.018-.083-.016-.065-.023-.1-.015-.058-.02-.088a2.025,2.025,0,0,1-.021-.2v-.036l-.157-5.017,14.043-4.823,2.021-.064a1.861,1.861,0,0,1,1.871,1.839Z" transform="translate(-746.981 -613.193)" fill="#b3b3b3"/>
        <path id="Path_5913" data-name="Path 5913" d="M806.664,620.189c-.005-.057-.01-.113-.017-.169l-.007-.034c0-.018-.006-.035-.01-.053a2.793,2.793,0,0,0-.065-.287c-.005-.018-.009-.035-.015-.052s-.006-.023-.01-.034c-.018-.057-.04-.113-.061-.169-.013-.033-.024-.067-.038-.1-.028-.064-.059-.127-.091-.188-.011-.022-.02-.044-.032-.065-.045-.082-.1-.161-.148-.237-.012-.018-.026-.034-.039-.051-.042-.058-.084-.114-.13-.167l-.014-.015-.027-.029a2.91,2.91,0,0,0-.217-.216l-.039-.034-.025-.023c-.045-.038-.092-.073-.139-.108l-.065-.047-.018-.013c-.031-.021-.065-.041-.1-.061l-.1-.058-.024-.014-.083-.042c-.033-.016-.065-.031-.1-.045l-.041-.02-.082-.032c-.026-.01-.053-.018-.079-.028s-.048-.018-.072-.025l-.078-.023-.053-.012c-.042-.011-.085-.022-.128-.031l-.054-.012-.02,0c-.071-.012-.143-.022-.217-.028h-.005c-.024,0-.048,0-.071,0-.065,0-.131-.006-.2,0h-.012l-.254.008-14.392.45-.255.008a2.707,2.707,0,0,0-2.554,2.845l.064,2.066c-.063-.03-.123-.064-.187-.092l-.025-.01-.094-.039c-.131-.056-.263-.11-.4-.158l-.075-.025-.1-.036q-.179-.059-.36-.11l-.117-.031-.069-.018c-.139-.034-.279-.064-.42-.091l-.115-.023-.022,0q-.288-.048-.581-.074l-.062,0-.065,0c-.174-.012-.348-.019-.522-.02-.069,0-.138,0-.207,0h-.064l-.254.008c.09,0,.181,0,.271,0q.261,0,.521.02l.128.008q.292.026.581.075c.046.008.092.018.137.027.14.026.281.056.419.091.063.015.124.032.187.049.12.034.24.07.359.11.06.02.121.039.18.061.134.048.266.1.4.158.04.017.08.031.119.05q.226.1.445.219l.134,4.285c0,.086.014.169.022.253a3.817,3.817,0,0,0,1.473,2.688,3.512,3.512,0,0,0,2.236.724l13.675-.428.254-.008a2.635,2.635,0,0,0,.267-.023c.028,0,.054-.011.082-.015.059-.01.118-.02.175-.034.034-.008.066-.02.1-.029.051-.015.1-.029.15-.046s.068-.028.1-.042.091-.036.135-.057.067-.036.1-.054.084-.043.124-.068.065-.043.1-.064.077-.051.115-.079.061-.049.091-.074.072-.058.106-.089.056-.056.085-.083l.082-.083.012-.013a2.833,2.833,0,0,0,.194-.238l.009-.014c.018-.026.035-.052.053-.078.028-.043.058-.086.084-.131l.012-.023c.02-.037.04-.073.059-.111s.032-.059.047-.09l.007-.018c.032-.069.063-.138.089-.21s.046-.138.066-.208c0-.01.006-.018.009-.028s.011-.049.018-.073.016-.073.023-.11c0-.021.01-.041.013-.062s.01-.058.015-.088.005-.046.008-.069.008-.065.011-.1.006-.063.007-.094c0-.014,0-.028,0-.042,0-.069.006-.138,0-.208l-.235-7.5c0-.017,0-.034,0-.052C806.67,620.254,806.667,620.221,806.664,620.189Zm-.837,7.685a1.854,1.854,0,0,1-1.749,1.947l-13.421.42h-.06c-.083,0-.166,0-.247-.009-.04,0-.08-.01-.12-.015l-.054-.006-.056-.007c-.074-.013-.148-.029-.22-.047-.04-.011-.08-.024-.119-.037l-.046-.014-.048-.015c-.072-.026-.142-.053-.211-.084-.039-.017-.077-.039-.115-.058l-.048-.025-.048-.024c-.075-.042-.148-.086-.219-.135-.035-.024-.07-.05-.105-.076s-.088-.069-.13-.106c-.016-.014-.029-.03-.045-.045a2.839,2.839,0,0,1-.21-.209c-.015-.018-.035-.032-.051-.05s-.011-.016-.018-.024c-.031-.036-.059-.075-.088-.113s-.072-.093-.105-.141-.05-.081-.075-.122-.061-.1-.088-.151-.042-.087-.064-.131-.048-.1-.069-.159-.034-.091-.05-.138-.027-.069-.038-.105c0-.015-.006-.032-.01-.048a3,3,0,0,1-.067-.3c0-.02-.011-.04-.014-.061v-.016c-.006-.039-.008-.08-.012-.119-.006-.059-.015-.117-.018-.177l0-.053-.2-6.486c0-.048,0-.1,0-.142s.007-.107.013-.16c0-.022.007-.043.011-.064l0-.031c0-.018.006-.037.01-.055q.014-.074.035-.145c.013-.048.029-.1.046-.143h0c.018-.048.038-.1.059-.142s.05-.1.078-.149l.015-.023.021-.031c.022-.035.043-.071.067-.1.035-.049.074-.094.114-.14.009-.009.016-.02.024-.03l.01-.011c.042-.046.093-.084.139-.126s.073-.071.114-.1a1.827,1.827,0,0,1,.178-.109c.041-.023.079-.053.122-.073a1.713,1.713,0,0,1,.221-.08c.038-.012.074-.03.113-.04a1.781,1.781,0,0,1,.36-.05l14.392-.45a1.857,1.857,0,0,1,1.868,1.838Z" transform="translate(-756.611 -613.969)" fill="#b3b3b3"/>
      </g>
      <g id="Group_5587" data-name="Group 5587" transform="translate(620.324 715.788)">
        <path id="Path_5914" data-name="Path 5914" d="M706.11,817.234a5.232,5.232,0,1,0-1.723-10.167,17.849,17.849,0,0,0-.467-2.857c0-.077.01-.154.01-.23a3.616,3.616,0,0,0-.791-2.2l-.021-.049-.209-.233c-2.218-2.48-8.451-4.095-15.929-4.14a9.13,9.13,0,0,0,2.947,3.6l.136.01c.1.007.213.014.321.024l.268.021c.1.01.205.018.307.028s.178.018.268.025l.292.031.269.031.279.031c.091.011.178.021.265.035s.181.021.272.035.174.024.258.034.174.029.261.039.171.028.255.038l.255.043.247.042c.08.014.161.031.241.045s.164.028.244.045.157.028.234.045.16.031.237.045.15.031.223.049.157.031.234.048.14.031.206.049.157.035.234.056.129.031.192.045.154.039.23.059c.059.015.118.031.178.045l.227.063c.053.017.1.031.154.045.08.025.156.045.233.07a1.159,1.159,0,0,1,.122.038c.422.129.81.266,1.158.4l.08.031.2.084.1.042c.059.024.118.053.174.08.035.014.07.031.1.045.053.028.1.052.157.08.035.018.069.031.1.049.049.028.094.053.143.077.031.018.066.039.1.056l.126.074c.031.021.063.038.094.059s.073.045.111.069l.088.063a1.024,1.024,0,0,1,.1.069l.084.063c.028.021.052.045.08.067s.032.028.045.042q.105.282.189.554c-.889.994-5.476,2.941-13.63,2.941s-12.734-1.947-13.63-2.941q.083-.272.188-.554a.6.6,0,0,1,.053-.045.767.767,0,0,1,.066-.056c.035-.029.067-.053.1-.077s.052-.039.076-.059.077-.049.115-.077.056-.035.083-.056.084-.048.126-.077l.094-.052c.045-.028.094-.053.14-.08l.1-.052c.053-.025.1-.052.157-.077l.1-.053c.056-.028.111-.052.17-.08.035-.015.07-.031.108-.049.063-.028.129-.056.2-.08a.887.887,0,0,1,.1-.045c.073-.031.15-.059.23-.091.029-.01.056-.021.088-.035q.324-.119.69-.24l.108-.031.262-.083.146-.042c.08-.025.16-.049.241-.07.056-.018.115-.031.171-.048l.237-.063c.059-.014.122-.031.181-.045.08-.021.16-.039.241-.059.063-.018.129-.031.2-.045s.16-.039.241-.056.14-.031.209-.045l.248-.052c.069-.014.143-.028.216-.045s.167-.031.254-.049l.227-.042c.083-.014.17-.031.258-.045s.153-.028.233-.039.178-.032.268-.046.161-.024.241-.034l.272-.042c.083-.01.167-.024.251-.034l.279-.039.258-.032.286-.031.265-.031.3-.031h0a9.6,9.6,0,0,1-1.3-3.363c-4.911.6-8.747,1.96-10.391,3.795l-.209.233-.021.049a3.637,3.637,0,0,0-.792,2.2c0,.08.007.154.01.23a17.71,17.71,0,0,0,4.374,16.55c-5.019,1.284-7.785,3.184-7.785,5.368,0,4.258,10.5,6.8,20.644,6.8s20.644-2.543,20.644-6.8c0-2.18-2.756-4.077-7.757-5.358a17.829,17.829,0,0,0,3.248-4.736A5.212,5.212,0,0,0,706.11,817.234Zm-1.747-6.934a2.442,2.442,0,1,1-.481,2.693A17.513,17.513,0,0,0,704.363,810.3Zm1.88,15.828c0,2.78-7.876,5.755-19.6,5.755s-19.6-2.975-19.6-5.755c0-1.625,2.79-3.32,7.282-4.426.108-.028.223-.053.335-.077a17.721,17.721,0,0,0,23.986,0c.111.028.227.052.335.08C703.463,822.811,706.242,824.506,706.242,826.128Zm-11.88-6.191a13.7,13.7,0,0,1-7.7,2.354,13.779,13.779,0,0,1-13.774-13.512c3.188,1.479,8.242,2.351,13.774,2.351s10.582-.868,13.773-2.347A13.785,13.785,0,0,1,694.363,819.938Z" transform="translate(-666 -783.054)" fill="#b3b3b3"/>
        <path id="Path_5915" data-name="Path 5915" d="M689.28,797.476c-.216.018-.432.031-.645.053a8.737,8.737,0,0,0,1.531,3.39.363.363,0,0,1,.056,0c.115-.007.233-.011.352-.017l.262-.01c.126-.007.252-.011.377-.015.084,0,.164,0,.248-.007l.432-.01c.07,0,.136,0,.206,0,.213,0,.428,0,.649,0s.4,0,.6,0a7.394,7.394,0,0,1-2.079-3.471C690.6,797.4,689.929,797.431,689.28,797.476Z" transform="translate(-672.082 -783.061)" fill="#b3b3b3"/>
        <path id="Path_5916" data-name="Path 5916" d="M688.033,795.773h0a18.709,18.709,0,0,0,2.306,2.965l.761-.719a18.509,18.509,0,0,1-1.884-2.337h0a8.817,8.817,0,0,1-1.468-3.383,4.952,4.952,0,0,1,0-1.845c.377-1.936,1.866-3.087,3.446-4.3a15.516,15.516,0,0,0,2.42-2.671,4.251,4.251,0,0,0,.518-4.236l-.619-1.444s.865,2.166.54,3.352c-.505,1.859-1.96,2.982-3.5,4.171-1.66,1.284-3.38,2.609-3.83,4.932a6.086,6.086,0,0,0-.02,2.149A9.485,9.485,0,0,0,688.033,795.773Z" transform="translate(-671.539 -777.8)" fill="#b3b3b3"/>
        <path id="Path_5917" data-name="Path 5917" d="M692.7,792.554a3.049,3.049,0,0,0,0,1.354,7.512,7.512,0,0,0,2.222,3.488,22.864,22.864,0,0,0,1.8,1.612l.662-.81c-.31-.251-.6-.5-.872-.743a8.79,8.79,0,0,1-2.728-3.561,2.119,2.119,0,0,1-.059-1.1c.2-.841.96-1.311,2.009-1.961a10.146,10.146,0,0,0,1.975-2.013,3.071,3.071,0,0,0,.6-2.59l-.389-1.752v1.812a3.073,3.073,0,0,1-1.022,2.286,13.988,13.988,0,0,1-1.72,1.367C694.055,790.636,692.995,791.289,692.7,792.554Z" transform="translate(-673.152 -779.594)" fill="#b3b3b3"/>
      </g>
    </g>
    <g id="Ellipse_29" data-name="Ellipse 29" transform="translate(989 469)" fill="#707070" stroke="#707070" stroke-width="1">
      <circle cx="7" cy="7" r="7" stroke="none"/>
      <circle cx="7" cy="7" r="6.5" fill="none"/>
    </g>
  </g>
</svg>
