<svg xmlns="http://www.w3.org/2000/svg" viewBox="0 0 56 56"><defs><style>.cls-1{fill:#7df97d;}</style></defs><g id="Layer_2" data-name="Layer 2"><g id="Layer_1-2" data-name="Layer 1"><path id="Exclusion_4" data-name="Exclusion 4" class="cls-1" d="M56,56H0V0H56V56ZM25,5.39a1.66,1.66,0,0,0-1.23.55,31.71,31.71,0,0,0,2.35,44.79h0a1.66,1.66,0,0,0,2.05.13l6-4.19a1.66,1.66,0,0,0,.55-2l-3.5-7.56a1.63,1.63,0,0,0-1.48-1l-.25,0-5.3.81a25.42,25.42,0,0,1-.9-17.11l5.35.25h.08A1.62,1.62,0,0,0,30.19,19l2.68-7.88a1.65,1.65,0,0,0-.76-2L25.73,5.6A1.78,1.78,0,0,0,25,5.39Z"/></g></g></svg>