<svg xmlns="http://www.w3.org/2000/svg" viewBox="0 0 11.6 22.81"><g id="Layer_2" data-name="Layer 2"><g id="Layer_1-2" data-name="Layer 1"><g id="Group_98" data-name="Group 98"><path id="Path_98" data-name="Path 98" d="M10.62,12.69H7.24a.43.43,0,0,0-.43.43v9.26a.43.43,0,0,1-.43.43H4a.43.43,0,0,1-.43-.43V13a.42.42,0,0,1,.12-.3L6.8,9.37v.2h3.8A.43.43,0,0,1,11,10v2.27A.43.43,0,0,1,10.62,12.69Z"/><path id="Path_99" data-name="Path 99" d="M11.6,2.75a.42.42,0,0,1-.43.42H11.1a5.31,5.31,0,0,0-.68-.05,3.54,3.54,0,0,0-2.28.76,2.2,2.2,0,0,0-.6.72.16.16,0,0,0,0,.06,4.71,4.71,0,0,0-.39.89,10.56,10.56,0,0,0-.3,1.77.39.39,0,0,1-.11.27l-3.15,5a.4.4,0,0,1-.32.14H.43A.42.42,0,0,1,0,12.26V10a.43.43,0,0,1,.43-.43H3.11a.43.43,0,0,0,.43-.43V7.94A10.81,10.81,0,0,1,4,4.59a7,7,0,0,1,1.4-2.53A5.78,5.78,0,0,1,7.63.49,8.25,8.25,0,0,1,10,0a6.61,6.61,0,0,1,.89,0l.39,0a.43.43,0,0,1,.34.42Z"/></g></g></g></svg>