<svg xmlns="http://www.w3.org/2000/svg" viewBox="0 0 48.91 48.91"><defs><style>.cls-1{fill:#4034e6;}</style></defs><g id="Layer_2" data-name="Layer 2"><g id="Layer_1-2" data-name="Layer 1"><path id="Icon_awesome-facebook-square" data-name="Icon awesome-facebook-square" class="cls-1" d="M43.67,0H5.24A5.25,5.25,0,0,0,0,5.24V43.67a5.25,5.25,0,0,0,5.24,5.24h15V32.28H13.35V24.45h6.87v-6C20.22,11.7,24.26,8,30.45,8a41,41,0,0,1,6.06.52v6.66H33.1c-3.36,0-4.41,2.09-4.41,4.23v5.08H36.2L35,32.28H28.68V48.91h15a5.25,5.25,0,0,0,5.24-5.24V5.24A5.25,5.25,0,0,0,43.67,0Z"/></g></g></svg>