<svg id="Group_5950" data-name="Group 5950" xmlns="http://www.w3.org/2000/svg" xmlns:xlink="http://www.w3.org/1999/xlink" width="390" height="844" viewBox="0 0 390 844">
  <defs>
    <clipPath id="clip-path">
      <rect width="89" height="228" fill="none"/>
    </clipPath>
  </defs>
  <rect id="Rectangle_3493" data-name="Rectangle 3493" width="390" height="844" fill="#070708"/>
  <g id="Group_5926" data-name="Group 5926" transform="translate(-21.765 -15)">
    <g id="Group_5389" data-name="Group 5389" transform="translate(0 5)">
      <g id="Group_16" data-name="Group 16" transform="translate(364.742 29)">
        <rect id="Rectangle_5" data-name="Rectangle 5" width="14.624" height="2.9" fill="#e1dddd"/>
        <rect id="Rectangle_6" data-name="Rectangle 6" width="26.758" height="2.9" transform="translate(0 7.734)" fill="#e1dddd"/>
        <rect id="Rectangle_7" data-name="Rectangle 7" width="26.758" height="2.9" transform="translate(0 15.468)" fill="#e1dddd"/>
      </g>
    </g>
    <path id="Path_97" data-name="Path 97" d="M1197.18,1256.216h-8.572l-.722-1.918h.367v-2.5h-9v2.5h.367l-.722,1.918h-3.054a8.4,8.4,0,0,1,8.192-6.607,8.282,8.282,0,0,1,3.949.986l1.18-2.205a10.888,10.888,0,0,0-15.868,7.826h-3.17v2.5h3.05a10.748,10.748,0,0,0,2.45,6.186l-2.155,5.726,2.341.881,1.785-4.742a10.812,10.812,0,0,0,4.937,2v7.049h2.5v-6.992a10.885,10.885,0,0,0,4.1-1.222l-1.174-2.208a8.242,8.242,0,0,1-2.927.917v-7.6h1.844l4.815,12.793,2.341-.881-4.483-11.912h7.631Zm-21.5,2.5h2.271l-1.258,3.342A8.288,8.288,0,0,1,1175.681,1258.717Zm6.85,7.523a8.335,8.335,0,0,1-4.012-1.931l2.1-5.592h1.907Zm-.966-10.024.722-1.918h2.926l.721,1.918Z" transform="translate(-1127.359 -1218.107)" fill="#f8f8f8"/>
  </g>
  <g id="Group_5927" data-name="Group 5927" transform="translate(-10)">
    <text id="Taekonda_Creative_Agency." data-name="Taekonda Creative Agency." transform="translate(54 94.184)" fill="#cecece" font-size="9" font-family="Poppins-Medium, Poppins" font-weight="500" letter-spacing="0.076em"><tspan x="0" y="9">Taekonda Creative Agency.</tspan></text>
    <text id="Connect_Innovate_Explore." data-name="Connect, Innovate, Explore." transform="translate(54 102.747)" fill="#fff" font-size="33" font-family="Poppins-SemiBold, Poppins" font-weight="600"><tspan x="0" y="35">Connect, </tspan><tspan x="0" y="72">Innovate, Explore.</tspan></text>
    <g id="Group_5923" data-name="Group 5923" transform="translate(54 186.963)">
      <rect id="Rectangle_3490" data-name="Rectangle 3490" width="85" height="18" transform="translate(0 0.037)" fill="#fff"/>
      <g id="Group_5928" data-name="Group 5928" transform="translate(20.599 3.9)">
        <g id="Group_5913" data-name="Group 5913" transform="translate(36.318 1.641)">
          <g id="Component_4_17" data-name="Component 4 – 17" transform="translate(0)">
            <g id="Icon_feather-arrow-up-right" data-name="Icon feather-arrow-up-right" transform="translate(3.509) rotate(45)">
              <path id="Path_108" data-name="Path 108" d="M0,4.962,4.962,0" transform="translate(0 0)" fill="none" stroke="#070708" stroke-linecap="round" stroke-linejoin="round" stroke-width="1"/>
              <path id="Path_109" data-name="Path 109" d="M0,0H4.962V4.962" fill="none" stroke="#070708" stroke-linecap="round" stroke-linejoin="round" stroke-width="1"/>
            </g>
          </g>
        </g>
        <text id="Connect" transform="translate(0.401 7.137)" fill="#070708" font-size="7" font-family="Poppins-Medium, Poppins" font-weight="500" letter-spacing="-0.03em"><tspan x="0" y="0">Connect</tspan></text>
      </g>
    </g>
    <g id="Repeat_Grid_20" data-name="Repeat Grid 20" transform="translate(231)" clip-path="url(#clip-path)">
      <g transform="translate(-427 0)">
        <g id="Group_5912" data-name="Group 5912" transform="translate(-1077.74 1028.783)" opacity="0.07">
          <circle id="Ellipse_53" data-name="Ellipse 53" cx="3.5" cy="3.5" r="3.5" transform="translate(1504.74 -555.784)" fill="#707070"/>
          <circle id="Ellipse_53-2" data-name="Ellipse 53-2" cx="3.5" cy="3.5" r="3.5" transform="translate(1504.74 -566.784)" fill="#707070"/>
          <circle id="Ellipse_53-3" data-name="Ellipse 53-3" cx="3.5" cy="3.5" r="3.5" transform="translate(1504.74 -577.784)" fill="#707070"/>
          <circle id="Ellipse_53-4" data-name="Ellipse 53-4" cx="3.5" cy="3.5" r="3.5" transform="translate(1504.74 -588.784)" fill="#707070"/>
          <circle id="Ellipse_53-5" data-name="Ellipse 53-5" cx="3.5" cy="3.5" r="3.5" transform="translate(1504.74 -599.784)" fill="#707070"/>
          <circle id="Ellipse_53-6" data-name="Ellipse 53-6" cx="3.5" cy="3.5" r="3.5" transform="translate(1504.74 -610.784)" fill="#707070"/>
          <circle id="Ellipse_53-7" data-name="Ellipse 53-7" cx="3.5" cy="3.5" r="3.5" transform="translate(1504.74 -621.784)" fill="#707070"/>
          <circle id="Ellipse_53-8" data-name="Ellipse 53-8" cx="3.5" cy="3.5" r="3.5" transform="translate(1504.74 -632.784)" fill="#707070"/>
          <circle id="Ellipse_53-9" data-name="Ellipse 53-9" cx="3.5" cy="3.5" r="3.5" transform="translate(1504.74 -643.784)" fill="#707070"/>
          <circle id="Ellipse_53-10" data-name="Ellipse 53-10" cx="3.5" cy="3.5" r="3.5" transform="translate(1504.74 -654.784)" fill="#707070"/>
          <circle id="Ellipse_53-11" data-name="Ellipse 53-11" cx="3.5" cy="3.5" r="3.5" transform="translate(1504.74 -665.784)" fill="#707070"/>
          <circle id="Ellipse_53-12" data-name="Ellipse 53-12" cx="3.5" cy="3.5" r="3.5" transform="translate(1504.74 -676.784)" fill="#707070"/>
          <circle id="Ellipse_53-13" data-name="Ellipse 53-13" cx="3.5" cy="3.5" r="3.5" transform="translate(1504.74 -687.784)" fill="#707070"/>
          <circle id="Ellipse_53-14" data-name="Ellipse 53-14" cx="3.5" cy="3.5" r="3.5" transform="translate(1504.74 -698.784)" fill="#707070"/>
          <circle id="Ellipse_53-15" data-name="Ellipse 53-15" cx="3.5" cy="3.5" r="3.5" transform="translate(1504.74 -709.784)" fill="#707070"/>
          <circle id="Ellipse_53-16" data-name="Ellipse 53-16" cx="3.5" cy="3.5" r="3.5" transform="translate(1504.74 -720.784)" fill="#707070"/>
          <circle id="Ellipse_53-17" data-name="Ellipse 53-17" cx="3.5" cy="3.5" r="3.5" transform="translate(1504.74 -731.784)" fill="#707070"/>
          <circle id="Ellipse_53-18" data-name="Ellipse 53-18" cx="3.5" cy="3.5" r="3.5" transform="translate(1504.74 -742.784)" fill="#707070"/>
          <circle id="Ellipse_53-19" data-name="Ellipse 53-19" cx="3.5" cy="3.5" r="3.5" transform="translate(1504.74 -753.784)" fill="#707070"/>
          <circle id="Ellipse_53-20" data-name="Ellipse 53-20" cx="3.5" cy="3.5" r="3.5" transform="translate(1504.74 -764.784)" fill="#707070"/>
          <circle id="Ellipse_53-21" data-name="Ellipse 53-21" cx="3.5" cy="3.5" r="3.5" transform="translate(1504.74 -775.784)" fill="#707070"/>
          <circle id="Ellipse_53-22" data-name="Ellipse 53-22" cx="3.5" cy="3.5" r="3.5" transform="translate(1504.74 -786.784)" fill="#707070"/>
          <circle id="Ellipse_53-23" data-name="Ellipse 53-23" cx="3.5" cy="3.5" r="3.5" transform="translate(1504.74 -797.784)" fill="#707070"/>
          <circle id="Ellipse_53-24" data-name="Ellipse 53-24" cx="3.5" cy="3.5" r="3.5" transform="translate(1504.74 -808.784)" fill="#707070"/>
          <circle id="Ellipse_53-25" data-name="Ellipse 53-25" cx="3.5" cy="3.5" r="3.5" transform="translate(1504.74 -819.784)" fill="#707070"/>
          <circle id="Ellipse_53-26" data-name="Ellipse 53-26" cx="3.5" cy="3.5" r="3.5" transform="translate(1504.74 -830.784)" fill="#707070"/>
          <circle id="Ellipse_53-27" data-name="Ellipse 53-27" cx="3.5" cy="3.5" r="3.5" transform="translate(1504.74 -841.784)" fill="#707070"/>
          <circle id="Ellipse_53-28" data-name="Ellipse 53-28" cx="3.5" cy="3.5" r="3.5" transform="translate(1504.74 -852.784)" fill="#707070"/>
          <circle id="Ellipse_53-29" data-name="Ellipse 53-29" cx="3.5" cy="3.5" r="3.5" transform="translate(1504.74 -863.784)" fill="#707070"/>
          <circle id="Ellipse_53-30" data-name="Ellipse 53-30" cx="3.5" cy="3.5" r="3.5" transform="translate(1504.74 -874.784)" fill="#707070"/>
          <circle id="Ellipse_53-31" data-name="Ellipse 53-31" cx="3.5" cy="3.5" r="3.5" transform="translate(1518.74 -555.784)" fill="#707070"/>
          <circle id="Ellipse_53-32" data-name="Ellipse 53-32" cx="3.5" cy="3.5" r="3.5" transform="translate(1518.74 -566.784)" fill="#707070"/>
          <circle id="Ellipse_53-33" data-name="Ellipse 53-33" cx="3.5" cy="3.5" r="3.5" transform="translate(1518.74 -577.784)" fill="#707070"/>
          <circle id="Ellipse_53-34" data-name="Ellipse 53-34" cx="3.5" cy="3.5" r="3.5" transform="translate(1518.74 -588.784)" fill="#707070"/>
          <circle id="Ellipse_53-35" data-name="Ellipse 53-35" cx="3.5" cy="3.5" r="3.5" transform="translate(1518.74 -599.784)" fill="#707070"/>
          <circle id="Ellipse_53-36" data-name="Ellipse 53-36" cx="3.5" cy="3.5" r="3.5" transform="translate(1518.74 -610.784)" fill="#707070"/>
          <circle id="Ellipse_53-37" data-name="Ellipse 53-37" cx="3.5" cy="3.5" r="3.5" transform="translate(1518.74 -621.784)" fill="#707070"/>
          <circle id="Ellipse_53-38" data-name="Ellipse 53-38" cx="3.5" cy="3.5" r="3.5" transform="translate(1518.74 -632.784)" fill="#707070"/>
          <circle id="Ellipse_53-39" data-name="Ellipse 53-39" cx="3.5" cy="3.5" r="3.5" transform="translate(1518.74 -643.784)" fill="#707070"/>
          <circle id="Ellipse_53-40" data-name="Ellipse 53-40" cx="3.5" cy="3.5" r="3.5" transform="translate(1518.74 -654.784)" fill="#707070"/>
          <circle id="Ellipse_53-41" data-name="Ellipse 53-41" cx="3.5" cy="3.5" r="3.5" transform="translate(1518.74 -665.784)" fill="#707070"/>
          <circle id="Ellipse_53-42" data-name="Ellipse 53-42" cx="3.5" cy="3.5" r="3.5" transform="translate(1518.74 -676.784)" fill="#707070"/>
          <circle id="Ellipse_53-43" data-name="Ellipse 53-43" cx="3.5" cy="3.5" r="3.5" transform="translate(1518.74 -687.784)" fill="#707070"/>
          <circle id="Ellipse_53-44" data-name="Ellipse 53-44" cx="3.5" cy="3.5" r="3.5" transform="translate(1518.74 -698.784)" fill="#707070"/>
          <circle id="Ellipse_53-45" data-name="Ellipse 53-45" cx="3.5" cy="3.5" r="3.5" transform="translate(1518.74 -709.784)" fill="#707070"/>
          <circle id="Ellipse_53-46" data-name="Ellipse 53-46" cx="3.5" cy="3.5" r="3.5" transform="translate(1518.74 -720.784)" fill="#707070"/>
          <circle id="Ellipse_53-47" data-name="Ellipse 53-47" cx="3.5" cy="3.5" r="3.5" transform="translate(1518.74 -731.784)" fill="#707070"/>
          <circle id="Ellipse_53-48" data-name="Ellipse 53-48" cx="3.5" cy="3.5" r="3.5" transform="translate(1518.74 -742.784)" fill="#707070"/>
          <circle id="Ellipse_53-49" data-name="Ellipse 53-49" cx="3.5" cy="3.5" r="3.5" transform="translate(1518.74 -753.784)" fill="#707070"/>
          <circle id="Ellipse_53-50" data-name="Ellipse 53-50" cx="3.5" cy="3.5" r="3.5" transform="translate(1518.74 -764.784)" fill="#707070"/>
          <circle id="Ellipse_53-51" data-name="Ellipse 53-51" cx="3.5" cy="3.5" r="3.5" transform="translate(1518.74 -775.784)" fill="#707070"/>
          <circle id="Ellipse_53-52" data-name="Ellipse 53-52" cx="3.5" cy="3.5" r="3.5" transform="translate(1518.74 -786.784)" fill="#707070"/>
          <circle id="Ellipse_53-53" data-name="Ellipse 53-53" cx="3.5" cy="3.5" r="3.5" transform="translate(1518.74 -797.784)" fill="#707070"/>
          <circle id="Ellipse_53-54" data-name="Ellipse 53-54" cx="3.5" cy="3.5" r="3.5" transform="translate(1518.74 -808.784)" fill="#707070"/>
          <circle id="Ellipse_53-55" data-name="Ellipse 53-55" cx="3.5" cy="3.5" r="3.5" transform="translate(1518.74 -819.784)" fill="#707070"/>
          <circle id="Ellipse_53-56" data-name="Ellipse 53-56" cx="3.5" cy="3.5" r="3.5" transform="translate(1518.74 -830.784)" fill="#707070"/>
          <circle id="Ellipse_53-57" data-name="Ellipse 53-57" cx="3.5" cy="3.5" r="3.5" transform="translate(1518.74 -841.784)" fill="#707070"/>
          <circle id="Ellipse_53-58" data-name="Ellipse 53-58" cx="3.5" cy="3.5" r="3.5" transform="translate(1518.74 -852.784)" fill="#707070"/>
          <circle id="Ellipse_53-59" data-name="Ellipse 53-59" cx="3.5" cy="3.5" r="3.5" transform="translate(1518.74 -863.784)" fill="#707070"/>
          <circle id="Ellipse_53-60" data-name="Ellipse 53-60" cx="3.5" cy="3.5" r="3.5" transform="translate(1518.74 -874.784)" fill="#707070"/>
          <circle id="Ellipse_53-61" data-name="Ellipse 53-61" cx="3.5" cy="3.5" r="3.5" transform="translate(1532.74 -555.784)" fill="#707070"/>
          <circle id="Ellipse_53-62" data-name="Ellipse 53-62" cx="3.5" cy="3.5" r="3.5" transform="translate(1532.74 -566.784)" fill="#707070"/>
          <circle id="Ellipse_53-63" data-name="Ellipse 53-63" cx="3.5" cy="3.5" r="3.5" transform="translate(1532.74 -577.784)" fill="#707070"/>
          <circle id="Ellipse_53-64" data-name="Ellipse 53-64" cx="3.5" cy="3.5" r="3.5" transform="translate(1532.74 -588.784)" fill="#707070"/>
          <circle id="Ellipse_53-65" data-name="Ellipse 53-65" cx="3.5" cy="3.5" r="3.5" transform="translate(1532.74 -599.784)" fill="#707070"/>
          <circle id="Ellipse_53-66" data-name="Ellipse 53-66" cx="3.5" cy="3.5" r="3.5" transform="translate(1532.74 -610.784)" fill="#707070"/>
          <circle id="Ellipse_53-67" data-name="Ellipse 53-67" cx="3.5" cy="3.5" r="3.5" transform="translate(1532.74 -621.784)" fill="#707070"/>
          <circle id="Ellipse_53-68" data-name="Ellipse 53-68" cx="3.5" cy="3.5" r="3.5" transform="translate(1532.74 -632.784)" fill="#707070"/>
          <circle id="Ellipse_53-69" data-name="Ellipse 53-69" cx="3.5" cy="3.5" r="3.5" transform="translate(1532.74 -643.784)" fill="#707070"/>
          <circle id="Ellipse_53-70" data-name="Ellipse 53-70" cx="3.5" cy="3.5" r="3.5" transform="translate(1532.74 -654.784)" fill="#707070"/>
          <circle id="Ellipse_53-71" data-name="Ellipse 53-71" cx="3.5" cy="3.5" r="3.5" transform="translate(1532.74 -665.784)" fill="#707070"/>
          <circle id="Ellipse_53-72" data-name="Ellipse 53-72" cx="3.5" cy="3.5" r="3.5" transform="translate(1532.74 -676.784)" fill="#707070"/>
          <circle id="Ellipse_53-73" data-name="Ellipse 53-73" cx="3.5" cy="3.5" r="3.5" transform="translate(1532.74 -687.784)" fill="#707070"/>
          <circle id="Ellipse_53-74" data-name="Ellipse 53-74" cx="3.5" cy="3.5" r="3.5" transform="translate(1532.74 -698.784)" fill="#707070"/>
          <circle id="Ellipse_53-75" data-name="Ellipse 53-75" cx="3.5" cy="3.5" r="3.5" transform="translate(1532.74 -709.784)" fill="#707070"/>
          <circle id="Ellipse_53-76" data-name="Ellipse 53-76" cx="3.5" cy="3.5" r="3.5" transform="translate(1532.74 -720.784)" fill="#707070"/>
          <circle id="Ellipse_53-77" data-name="Ellipse 53-77" cx="3.5" cy="3.5" r="3.5" transform="translate(1532.74 -731.784)" fill="#707070"/>
          <circle id="Ellipse_53-78" data-name="Ellipse 53-78" cx="3.5" cy="3.5" r="3.5" transform="translate(1532.74 -742.784)" fill="#707070"/>
          <circle id="Ellipse_53-79" data-name="Ellipse 53-79" cx="3.5" cy="3.5" r="3.5" transform="translate(1532.74 -753.784)" fill="#707070"/>
          <circle id="Ellipse_53-80" data-name="Ellipse 53-80" cx="3.5" cy="3.5" r="3.5" transform="translate(1532.74 -764.784)" fill="#707070"/>
          <circle id="Ellipse_53-81" data-name="Ellipse 53-81" cx="3.5" cy="3.5" r="3.5" transform="translate(1532.74 -775.784)" fill="#707070"/>
          <circle id="Ellipse_53-82" data-name="Ellipse 53-82" cx="3.5" cy="3.5" r="3.5" transform="translate(1532.74 -786.784)" fill="#707070"/>
          <circle id="Ellipse_53-83" data-name="Ellipse 53-83" cx="3.5" cy="3.5" r="3.5" transform="translate(1532.74 -797.784)" fill="#707070"/>
          <circle id="Ellipse_53-84" data-name="Ellipse 53-84" cx="3.5" cy="3.5" r="3.5" transform="translate(1532.74 -808.784)" fill="#707070"/>
          <circle id="Ellipse_53-85" data-name="Ellipse 53-85" cx="3.5" cy="3.5" r="3.5" transform="translate(1532.74 -819.784)" fill="#707070"/>
          <circle id="Ellipse_53-86" data-name="Ellipse 53-86" cx="3.5" cy="3.5" r="3.5" transform="translate(1532.74 -830.784)" fill="#707070"/>
          <circle id="Ellipse_53-87" data-name="Ellipse 53-87" cx="3.5" cy="3.5" r="3.5" transform="translate(1532.74 -841.784)" fill="#707070"/>
          <circle id="Ellipse_53-88" data-name="Ellipse 53-88" cx="3.5" cy="3.5" r="3.5" transform="translate(1532.74 -852.784)" fill="#707070"/>
          <circle id="Ellipse_53-89" data-name="Ellipse 53-89" cx="3.5" cy="3.5" r="3.5" transform="translate(1532.74 -863.784)" fill="#707070"/>
          <circle id="Ellipse_53-90" data-name="Ellipse 53-90" cx="3.5" cy="3.5" r="3.5" transform="translate(1532.74 -874.784)" fill="#707070"/>
          <circle id="Ellipse_53-91" data-name="Ellipse 53-91" cx="3.5" cy="3.5" r="3.5" transform="translate(1546.74 -555.784)" fill="#707070"/>
          <circle id="Ellipse_53-92" data-name="Ellipse 53-92" cx="3.5" cy="3.5" r="3.5" transform="translate(1546.74 -566.784)" fill="#707070"/>
          <circle id="Ellipse_53-93" data-name="Ellipse 53-93" cx="3.5" cy="3.5" r="3.5" transform="translate(1546.74 -577.784)" fill="#707070"/>
          <circle id="Ellipse_53-94" data-name="Ellipse 53-94" cx="3.5" cy="3.5" r="3.5" transform="translate(1546.74 -588.784)" fill="#707070"/>
          <circle id="Ellipse_53-95" data-name="Ellipse 53-95" cx="3.5" cy="3.5" r="3.5" transform="translate(1546.74 -599.784)" fill="#707070"/>
          <circle id="Ellipse_53-96" data-name="Ellipse 53-96" cx="3.5" cy="3.5" r="3.5" transform="translate(1546.74 -610.784)" fill="#707070"/>
          <circle id="Ellipse_53-97" data-name="Ellipse 53-97" cx="3.5" cy="3.5" r="3.5" transform="translate(1546.74 -621.784)" fill="#707070"/>
          <circle id="Ellipse_53-98" data-name="Ellipse 53-98" cx="3.5" cy="3.5" r="3.5" transform="translate(1546.74 -632.784)" fill="#707070"/>
          <circle id="Ellipse_53-99" data-name="Ellipse 53-99" cx="3.5" cy="3.5" r="3.5" transform="translate(1546.74 -643.784)" fill="#707070"/>
          <circle id="Ellipse_53-100" data-name="Ellipse 53-100" cx="3.5" cy="3.5" r="3.5" transform="translate(1546.74 -654.784)" fill="#707070"/>
          <circle id="Ellipse_53-101" data-name="Ellipse 53-101" cx="3.5" cy="3.5" r="3.5" transform="translate(1546.74 -665.784)" fill="#707070"/>
          <circle id="Ellipse_53-102" data-name="Ellipse 53-102" cx="3.5" cy="3.5" r="3.5" transform="translate(1546.74 -676.784)" fill="#707070"/>
          <circle id="Ellipse_53-103" data-name="Ellipse 53-103" cx="3.5" cy="3.5" r="3.5" transform="translate(1546.74 -687.784)" fill="#707070"/>
          <circle id="Ellipse_53-104" data-name="Ellipse 53-104" cx="3.5" cy="3.5" r="3.5" transform="translate(1546.74 -698.784)" fill="#707070"/>
          <circle id="Ellipse_53-105" data-name="Ellipse 53-105" cx="3.5" cy="3.5" r="3.5" transform="translate(1546.74 -709.784)" fill="#707070"/>
          <circle id="Ellipse_53-106" data-name="Ellipse 53-106" cx="3.5" cy="3.5" r="3.5" transform="translate(1546.74 -720.784)" fill="#707070"/>
          <circle id="Ellipse_53-107" data-name="Ellipse 53-107" cx="3.5" cy="3.5" r="3.5" transform="translate(1546.74 -731.784)" fill="#707070"/>
          <circle id="Ellipse_53-108" data-name="Ellipse 53-108" cx="3.5" cy="3.5" r="3.5" transform="translate(1546.74 -742.784)" fill="#707070"/>
          <circle id="Ellipse_53-109" data-name="Ellipse 53-109" cx="3.5" cy="3.5" r="3.5" transform="translate(1546.74 -753.784)" fill="#707070"/>
          <circle id="Ellipse_53-110" data-name="Ellipse 53-110" cx="3.5" cy="3.5" r="3.5" transform="translate(1546.74 -764.784)" fill="#707070"/>
          <circle id="Ellipse_53-111" data-name="Ellipse 53-111" cx="3.5" cy="3.5" r="3.5" transform="translate(1546.74 -775.784)" fill="#707070"/>
          <circle id="Ellipse_53-112" data-name="Ellipse 53-112" cx="3.5" cy="3.5" r="3.5" transform="translate(1546.74 -786.784)" fill="#707070"/>
          <circle id="Ellipse_53-113" data-name="Ellipse 53-113" cx="3.5" cy="3.5" r="3.5" transform="translate(1546.74 -797.784)" fill="#707070"/>
          <circle id="Ellipse_53-114" data-name="Ellipse 53-114" cx="3.5" cy="3.5" r="3.5" transform="translate(1546.74 -808.784)" fill="#707070"/>
          <circle id="Ellipse_53-115" data-name="Ellipse 53-115" cx="3.5" cy="3.5" r="3.5" transform="translate(1546.74 -819.784)" fill="#707070"/>
          <circle id="Ellipse_53-116" data-name="Ellipse 53-116" cx="3.5" cy="3.5" r="3.5" transform="translate(1546.74 -830.784)" fill="#707070"/>
          <circle id="Ellipse_53-117" data-name="Ellipse 53-117" cx="3.5" cy="3.5" r="3.5" transform="translate(1546.74 -841.784)" fill="#707070"/>
          <circle id="Ellipse_53-118" data-name="Ellipse 53-118" cx="3.5" cy="3.5" r="3.5" transform="translate(1546.74 -852.784)" fill="#707070"/>
          <circle id="Ellipse_53-119" data-name="Ellipse 53-119" cx="3.5" cy="3.5" r="3.5" transform="translate(1546.74 -863.784)" fill="#707070"/>
          <circle id="Ellipse_53-120" data-name="Ellipse 53-120" cx="3.5" cy="3.5" r="3.5" transform="translate(1546.74 -874.784)" fill="#707070"/>
          <circle id="Ellipse_53-121" data-name="Ellipse 53-121" cx="3.5" cy="3.5" r="3.5" transform="translate(1560.74 -555.784)" fill="#707070"/>
          <circle id="Ellipse_53-122" data-name="Ellipse 53-122" cx="3.5" cy="3.5" r="3.5" transform="translate(1560.74 -566.784)" fill="#707070"/>
          <circle id="Ellipse_53-123" data-name="Ellipse 53-123" cx="3.5" cy="3.5" r="3.5" transform="translate(1560.74 -577.784)" fill="#707070"/>
          <circle id="Ellipse_53-124" data-name="Ellipse 53-124" cx="3.5" cy="3.5" r="3.5" transform="translate(1560.74 -588.784)" fill="#707070"/>
          <circle id="Ellipse_53-125" data-name="Ellipse 53-125" cx="3.5" cy="3.5" r="3.5" transform="translate(1560.74 -599.784)" fill="#707070"/>
          <circle id="Ellipse_53-126" data-name="Ellipse 53-126" cx="3.5" cy="3.5" r="3.5" transform="translate(1560.74 -610.784)" fill="#707070"/>
          <circle id="Ellipse_53-127" data-name="Ellipse 53-127" cx="3.5" cy="3.5" r="3.5" transform="translate(1560.74 -621.784)" fill="#707070"/>
          <circle id="Ellipse_53-128" data-name="Ellipse 53-128" cx="3.5" cy="3.5" r="3.5" transform="translate(1560.74 -632.784)" fill="#707070"/>
          <circle id="Ellipse_53-129" data-name="Ellipse 53-129" cx="3.5" cy="3.5" r="3.5" transform="translate(1560.74 -643.784)" fill="#707070"/>
          <circle id="Ellipse_53-130" data-name="Ellipse 53-130" cx="3.5" cy="3.5" r="3.5" transform="translate(1560.74 -654.784)" fill="#707070"/>
          <circle id="Ellipse_53-131" data-name="Ellipse 53-131" cx="3.5" cy="3.5" r="3.5" transform="translate(1560.74 -665.784)" fill="#707070"/>
          <circle id="Ellipse_53-132" data-name="Ellipse 53-132" cx="3.5" cy="3.5" r="3.5" transform="translate(1560.74 -676.784)" fill="#707070"/>
          <circle id="Ellipse_53-133" data-name="Ellipse 53-133" cx="3.5" cy="3.5" r="3.5" transform="translate(1560.74 -687.784)" fill="#707070"/>
          <circle id="Ellipse_53-134" data-name="Ellipse 53-134" cx="3.5" cy="3.5" r="3.5" transform="translate(1560.74 -698.784)" fill="#707070"/>
          <circle id="Ellipse_53-135" data-name="Ellipse 53-135" cx="3.5" cy="3.5" r="3.5" transform="translate(1560.74 -709.784)" fill="#707070"/>
          <circle id="Ellipse_53-136" data-name="Ellipse 53-136" cx="3.5" cy="3.5" r="3.5" transform="translate(1560.74 -720.784)" fill="#707070"/>
          <circle id="Ellipse_53-137" data-name="Ellipse 53-137" cx="3.5" cy="3.5" r="3.5" transform="translate(1560.74 -731.784)" fill="#707070"/>
          <circle id="Ellipse_53-138" data-name="Ellipse 53-138" cx="3.5" cy="3.5" r="3.5" transform="translate(1560.74 -742.784)" fill="#707070"/>
          <circle id="Ellipse_53-139" data-name="Ellipse 53-139" cx="3.5" cy="3.5" r="3.5" transform="translate(1560.74 -753.784)" fill="#707070"/>
          <circle id="Ellipse_53-140" data-name="Ellipse 53-140" cx="3.5" cy="3.5" r="3.5" transform="translate(1560.74 -764.784)" fill="#707070"/>
          <circle id="Ellipse_53-141" data-name="Ellipse 53-141" cx="3.5" cy="3.5" r="3.5" transform="translate(1560.74 -775.784)" fill="#707070"/>
          <circle id="Ellipse_53-142" data-name="Ellipse 53-142" cx="3.5" cy="3.5" r="3.5" transform="translate(1560.74 -786.784)" fill="#707070"/>
          <circle id="Ellipse_53-143" data-name="Ellipse 53-143" cx="3.5" cy="3.5" r="3.5" transform="translate(1560.74 -797.784)" fill="#707070"/>
          <circle id="Ellipse_53-144" data-name="Ellipse 53-144" cx="3.5" cy="3.5" r="3.5" transform="translate(1560.74 -808.784)" fill="#707070"/>
          <circle id="Ellipse_53-145" data-name="Ellipse 53-145" cx="3.5" cy="3.5" r="3.5" transform="translate(1560.74 -819.784)" fill="#707070"/>
          <circle id="Ellipse_53-146" data-name="Ellipse 53-146" cx="3.5" cy="3.5" r="3.5" transform="translate(1560.74 -830.784)" fill="#707070"/>
          <circle id="Ellipse_53-147" data-name="Ellipse 53-147" cx="3.5" cy="3.5" r="3.5" transform="translate(1560.74 -841.784)" fill="#707070"/>
          <circle id="Ellipse_53-148" data-name="Ellipse 53-148" cx="3.5" cy="3.5" r="3.5" transform="translate(1560.74 -852.784)" fill="#707070"/>
          <circle id="Ellipse_53-149" data-name="Ellipse 53-149" cx="3.5" cy="3.5" r="3.5" transform="translate(1560.74 -863.784)" fill="#707070"/>
          <circle id="Ellipse_53-150" data-name="Ellipse 53-150" cx="3.5" cy="3.5" r="3.5" transform="translate(1560.74 -874.784)" fill="#707070"/>
          <circle id="Ellipse_53-151" data-name="Ellipse 53-151" cx="3.5" cy="3.5" r="3.5" transform="translate(1574.74 -555.784)" fill="#707070"/>
          <circle id="Ellipse_53-152" data-name="Ellipse 53-152" cx="3.5" cy="3.5" r="3.5" transform="translate(1574.74 -566.784)" fill="#707070"/>
          <circle id="Ellipse_53-153" data-name="Ellipse 53-153" cx="3.5" cy="3.5" r="3.5" transform="translate(1574.74 -577.784)" fill="#707070"/>
          <circle id="Ellipse_53-154" data-name="Ellipse 53-154" cx="3.5" cy="3.5" r="3.5" transform="translate(1574.74 -588.784)" fill="#707070"/>
          <circle id="Ellipse_53-155" data-name="Ellipse 53-155" cx="3.5" cy="3.5" r="3.5" transform="translate(1574.74 -599.784)" fill="#707070"/>
          <circle id="Ellipse_53-156" data-name="Ellipse 53-156" cx="3.5" cy="3.5" r="3.5" transform="translate(1574.74 -610.784)" fill="#707070"/>
          <circle id="Ellipse_53-157" data-name="Ellipse 53-157" cx="3.5" cy="3.5" r="3.5" transform="translate(1574.74 -621.784)" fill="#707070"/>
          <circle id="Ellipse_53-158" data-name="Ellipse 53-158" cx="3.5" cy="3.5" r="3.5" transform="translate(1574.74 -632.784)" fill="#707070"/>
          <circle id="Ellipse_53-159" data-name="Ellipse 53-159" cx="3.5" cy="3.5" r="3.5" transform="translate(1574.74 -643.784)" fill="#707070"/>
          <circle id="Ellipse_53-160" data-name="Ellipse 53-160" cx="3.5" cy="3.5" r="3.5" transform="translate(1574.74 -654.784)" fill="#707070"/>
          <circle id="Ellipse_53-161" data-name="Ellipse 53-161" cx="3.5" cy="3.5" r="3.5" transform="translate(1574.74 -665.784)" fill="#707070"/>
          <circle id="Ellipse_53-162" data-name="Ellipse 53-162" cx="3.5" cy="3.5" r="3.5" transform="translate(1574.74 -676.784)" fill="#707070"/>
          <circle id="Ellipse_53-163" data-name="Ellipse 53-163" cx="3.5" cy="3.5" r="3.5" transform="translate(1574.74 -687.784)" fill="#707070"/>
          <circle id="Ellipse_53-164" data-name="Ellipse 53-164" cx="3.5" cy="3.5" r="3.5" transform="translate(1574.74 -698.784)" fill="#707070"/>
          <circle id="Ellipse_53-165" data-name="Ellipse 53-165" cx="3.5" cy="3.5" r="3.5" transform="translate(1574.74 -709.784)" fill="#707070"/>
          <circle id="Ellipse_53-166" data-name="Ellipse 53-166" cx="3.5" cy="3.5" r="3.5" transform="translate(1574.74 -720.784)" fill="#707070"/>
          <circle id="Ellipse_53-167" data-name="Ellipse 53-167" cx="3.5" cy="3.5" r="3.5" transform="translate(1574.74 -731.784)" fill="#707070"/>
          <circle id="Ellipse_53-168" data-name="Ellipse 53-168" cx="3.5" cy="3.5" r="3.5" transform="translate(1574.74 -742.784)" fill="#707070"/>
          <circle id="Ellipse_53-169" data-name="Ellipse 53-169" cx="3.5" cy="3.5" r="3.5" transform="translate(1574.74 -753.784)" fill="#707070"/>
          <circle id="Ellipse_53-170" data-name="Ellipse 53-170" cx="3.5" cy="3.5" r="3.5" transform="translate(1574.74 -764.784)" fill="#707070"/>
          <circle id="Ellipse_53-171" data-name="Ellipse 53-171" cx="3.5" cy="3.5" r="3.5" transform="translate(1574.74 -775.784)" fill="#707070"/>
          <circle id="Ellipse_53-172" data-name="Ellipse 53-172" cx="3.5" cy="3.5" r="3.5" transform="translate(1574.74 -786.784)" fill="#707070"/>
          <circle id="Ellipse_53-173" data-name="Ellipse 53-173" cx="3.5" cy="3.5" r="3.5" transform="translate(1574.74 -797.784)" fill="#707070"/>
          <circle id="Ellipse_53-174" data-name="Ellipse 53-174" cx="3.5" cy="3.5" r="3.5" transform="translate(1574.74 -808.784)" fill="#707070"/>
          <circle id="Ellipse_53-175" data-name="Ellipse 53-175" cx="3.5" cy="3.5" r="3.5" transform="translate(1574.74 -819.784)" fill="#707070"/>
          <circle id="Ellipse_53-176" data-name="Ellipse 53-176" cx="3.5" cy="3.5" r="3.5" transform="translate(1574.74 -830.784)" fill="#707070"/>
          <circle id="Ellipse_53-177" data-name="Ellipse 53-177" cx="3.5" cy="3.5" r="3.5" transform="translate(1574.74 -841.784)" fill="#707070"/>
          <circle id="Ellipse_53-178" data-name="Ellipse 53-178" cx="3.5" cy="3.5" r="3.5" transform="translate(1574.74 -852.784)" fill="#707070"/>
          <circle id="Ellipse_53-179" data-name="Ellipse 53-179" cx="3.5" cy="3.5" r="3.5" transform="translate(1574.74 -863.784)" fill="#707070"/>
          <circle id="Ellipse_53-180" data-name="Ellipse 53-180" cx="3.5" cy="3.5" r="3.5" transform="translate(1574.74 -874.784)" fill="#707070"/>
          <circle id="Ellipse_53-181" data-name="Ellipse 53-181" cx="3.5" cy="3.5" r="3.5" transform="translate(1588.74 -555.784)" fill="#707070"/>
          <circle id="Ellipse_53-182" data-name="Ellipse 53-182" cx="3.5" cy="3.5" r="3.5" transform="translate(1588.74 -566.784)" fill="#707070"/>
          <circle id="Ellipse_53-183" data-name="Ellipse 53-183" cx="3.5" cy="3.5" r="3.5" transform="translate(1588.74 -577.784)" fill="#707070"/>
          <circle id="Ellipse_53-184" data-name="Ellipse 53-184" cx="3.5" cy="3.5" r="3.5" transform="translate(1588.74 -588.784)" fill="#707070"/>
          <circle id="Ellipse_53-185" data-name="Ellipse 53-185" cx="3.5" cy="3.5" r="3.5" transform="translate(1588.74 -599.784)" fill="#707070"/>
          <circle id="Ellipse_53-186" data-name="Ellipse 53-186" cx="3.5" cy="3.5" r="3.5" transform="translate(1588.74 -610.784)" fill="#707070"/>
          <circle id="Ellipse_53-187" data-name="Ellipse 53-187" cx="3.5" cy="3.5" r="3.5" transform="translate(1588.74 -621.784)" fill="#707070"/>
          <circle id="Ellipse_53-188" data-name="Ellipse 53-188" cx="3.5" cy="3.5" r="3.5" transform="translate(1588.74 -632.784)" fill="#707070"/>
          <circle id="Ellipse_53-189" data-name="Ellipse 53-189" cx="3.5" cy="3.5" r="3.5" transform="translate(1588.74 -643.784)" fill="#707070"/>
          <circle id="Ellipse_53-190" data-name="Ellipse 53-190" cx="3.5" cy="3.5" r="3.5" transform="translate(1588.74 -654.784)" fill="#707070"/>
          <circle id="Ellipse_53-191" data-name="Ellipse 53-191" cx="3.5" cy="3.5" r="3.5" transform="translate(1588.74 -665.784)" fill="#707070"/>
          <circle id="Ellipse_53-192" data-name="Ellipse 53-192" cx="3.5" cy="3.5" r="3.5" transform="translate(1588.74 -676.784)" fill="#707070"/>
          <circle id="Ellipse_53-193" data-name="Ellipse 53-193" cx="3.5" cy="3.5" r="3.5" transform="translate(1588.74 -687.784)" fill="#707070"/>
          <circle id="Ellipse_53-194" data-name="Ellipse 53-194" cx="3.5" cy="3.5" r="3.5" transform="translate(1588.74 -698.784)" fill="#707070"/>
          <circle id="Ellipse_53-195" data-name="Ellipse 53-195" cx="3.5" cy="3.5" r="3.5" transform="translate(1588.74 -709.784)" fill="#707070"/>
          <circle id="Ellipse_53-196" data-name="Ellipse 53-196" cx="3.5" cy="3.5" r="3.5" transform="translate(1588.74 -720.784)" fill="#707070"/>
          <circle id="Ellipse_53-197" data-name="Ellipse 53-197" cx="3.5" cy="3.5" r="3.5" transform="translate(1588.74 -731.784)" fill="#707070"/>
          <circle id="Ellipse_53-198" data-name="Ellipse 53-198" cx="3.5" cy="3.5" r="3.5" transform="translate(1588.74 -742.784)" fill="#707070"/>
          <circle id="Ellipse_53-199" data-name="Ellipse 53-199" cx="3.5" cy="3.5" r="3.5" transform="translate(1588.74 -753.784)" fill="#707070"/>
          <circle id="Ellipse_53-200" data-name="Ellipse 53-200" cx="3.5" cy="3.5" r="3.5" transform="translate(1588.74 -764.784)" fill="#707070"/>
          <circle id="Ellipse_53-201" data-name="Ellipse 53-201" cx="3.5" cy="3.5" r="3.5" transform="translate(1588.74 -775.784)" fill="#707070"/>
          <circle id="Ellipse_53-202" data-name="Ellipse 53-202" cx="3.5" cy="3.5" r="3.5" transform="translate(1588.74 -786.784)" fill="#707070"/>
          <circle id="Ellipse_53-203" data-name="Ellipse 53-203" cx="3.5" cy="3.5" r="3.5" transform="translate(1588.74 -797.784)" fill="#707070"/>
          <circle id="Ellipse_53-204" data-name="Ellipse 53-204" cx="3.5" cy="3.5" r="3.5" transform="translate(1588.74 -808.784)" fill="#707070"/>
          <circle id="Ellipse_53-205" data-name="Ellipse 53-205" cx="3.5" cy="3.5" r="3.5" transform="translate(1588.74 -819.784)" fill="#707070"/>
          <circle id="Ellipse_53-206" data-name="Ellipse 53-206" cx="3.5" cy="3.5" r="3.5" transform="translate(1588.74 -830.784)" fill="#707070"/>
          <circle id="Ellipse_53-207" data-name="Ellipse 53-207" cx="3.5" cy="3.5" r="3.5" transform="translate(1588.74 -841.784)" fill="#707070"/>
          <circle id="Ellipse_53-208" data-name="Ellipse 53-208" cx="3.5" cy="3.5" r="3.5" transform="translate(1588.74 -852.784)" fill="#707070"/>
          <circle id="Ellipse_53-209" data-name="Ellipse 53-209" cx="3.5" cy="3.5" r="3.5" transform="translate(1588.74 -863.784)" fill="#707070"/>
          <circle id="Ellipse_53-210" data-name="Ellipse 53-210" cx="3.5" cy="3.5" r="3.5" transform="translate(1588.74 -874.784)" fill="#707070"/>
          <circle id="Ellipse_53-211" data-name="Ellipse 53-211" cx="3.5" cy="3.5" r="3.5" transform="translate(1602.74 -555.784)" fill="#707070"/>
          <circle id="Ellipse_53-212" data-name="Ellipse 53-212" cx="3.5" cy="3.5" r="3.5" transform="translate(1602.74 -566.784)" fill="#707070"/>
          <circle id="Ellipse_53-213" data-name="Ellipse 53-213" cx="3.5" cy="3.5" r="3.5" transform="translate(1602.74 -577.784)" fill="#707070"/>
          <circle id="Ellipse_53-214" data-name="Ellipse 53-214" cx="3.5" cy="3.5" r="3.5" transform="translate(1602.74 -588.784)" fill="#707070"/>
          <circle id="Ellipse_53-215" data-name="Ellipse 53-215" cx="3.5" cy="3.5" r="3.5" transform="translate(1602.74 -599.784)" fill="#707070"/>
          <circle id="Ellipse_53-216" data-name="Ellipse 53-216" cx="3.5" cy="3.5" r="3.5" transform="translate(1602.74 -610.784)" fill="#707070"/>
          <circle id="Ellipse_53-217" data-name="Ellipse 53-217" cx="3.5" cy="3.5" r="3.5" transform="translate(1602.74 -621.784)" fill="#707070"/>
          <circle id="Ellipse_53-218" data-name="Ellipse 53-218" cx="3.5" cy="3.5" r="3.5" transform="translate(1602.74 -632.784)" fill="#707070"/>
          <circle id="Ellipse_53-219" data-name="Ellipse 53-219" cx="3.5" cy="3.5" r="3.5" transform="translate(1602.74 -643.784)" fill="#707070"/>
          <circle id="Ellipse_53-220" data-name="Ellipse 53-220" cx="3.5" cy="3.5" r="3.5" transform="translate(1602.74 -654.784)" fill="#707070"/>
          <circle id="Ellipse_53-221" data-name="Ellipse 53-221" cx="3.5" cy="3.5" r="3.5" transform="translate(1602.74 -665.784)" fill="#707070"/>
          <circle id="Ellipse_53-222" data-name="Ellipse 53-222" cx="3.5" cy="3.5" r="3.5" transform="translate(1602.74 -676.784)" fill="#707070"/>
          <circle id="Ellipse_53-223" data-name="Ellipse 53-223" cx="3.5" cy="3.5" r="3.5" transform="translate(1602.74 -687.784)" fill="#707070"/>
          <circle id="Ellipse_53-224" data-name="Ellipse 53-224" cx="3.5" cy="3.5" r="3.5" transform="translate(1602.74 -698.784)" fill="#707070"/>
          <circle id="Ellipse_53-225" data-name="Ellipse 53-225" cx="3.5" cy="3.5" r="3.5" transform="translate(1602.74 -709.784)" fill="#707070"/>
          <circle id="Ellipse_53-226" data-name="Ellipse 53-226" cx="3.5" cy="3.5" r="3.5" transform="translate(1602.74 -720.784)" fill="#707070"/>
          <circle id="Ellipse_53-227" data-name="Ellipse 53-227" cx="3.5" cy="3.5" r="3.5" transform="translate(1602.74 -731.784)" fill="#707070"/>
          <circle id="Ellipse_53-228" data-name="Ellipse 53-228" cx="3.5" cy="3.5" r="3.5" transform="translate(1602.74 -742.784)" fill="#707070"/>
          <circle id="Ellipse_53-229" data-name="Ellipse 53-229" cx="3.5" cy="3.5" r="3.5" transform="translate(1602.74 -753.784)" fill="#707070"/>
          <circle id="Ellipse_53-230" data-name="Ellipse 53-230" cx="3.5" cy="3.5" r="3.5" transform="translate(1602.74 -764.784)" fill="#707070"/>
          <circle id="Ellipse_53-231" data-name="Ellipse 53-231" cx="3.5" cy="3.5" r="3.5" transform="translate(1602.74 -775.784)" fill="#707070"/>
          <circle id="Ellipse_53-232" data-name="Ellipse 53-232" cx="3.5" cy="3.5" r="3.5" transform="translate(1602.74 -786.784)" fill="#707070"/>
          <circle id="Ellipse_53-233" data-name="Ellipse 53-233" cx="3.5" cy="3.5" r="3.5" transform="translate(1602.74 -797.784)" fill="#707070"/>
          <circle id="Ellipse_53-234" data-name="Ellipse 53-234" cx="3.5" cy="3.5" r="3.5" transform="translate(1602.74 -808.784)" fill="#707070"/>
          <circle id="Ellipse_53-235" data-name="Ellipse 53-235" cx="3.5" cy="3.5" r="3.5" transform="translate(1602.74 -819.784)" fill="#707070"/>
          <circle id="Ellipse_53-236" data-name="Ellipse 53-236" cx="3.5" cy="3.5" r="3.5" transform="translate(1602.74 -830.784)" fill="#707070"/>
          <circle id="Ellipse_53-237" data-name="Ellipse 53-237" cx="3.5" cy="3.5" r="3.5" transform="translate(1602.74 -841.784)" fill="#707070"/>
          <circle id="Ellipse_53-238" data-name="Ellipse 53-238" cx="3.5" cy="3.5" r="3.5" transform="translate(1602.74 -852.784)" fill="#707070"/>
          <circle id="Ellipse_53-239" data-name="Ellipse 53-239" cx="3.5" cy="3.5" r="3.5" transform="translate(1602.74 -863.784)" fill="#707070"/>
          <circle id="Ellipse_53-240" data-name="Ellipse 53-240" cx="3.5" cy="3.5" r="3.5" transform="translate(1602.74 -874.784)" fill="#707070"/>
          <circle id="Ellipse_53-241" data-name="Ellipse 53-241" cx="3.5" cy="3.5" r="3.5" transform="translate(1504.74 -885.784)" fill="#707070"/>
          <circle id="Ellipse_53-242" data-name="Ellipse 53-242" cx="3.5" cy="3.5" r="3.5" transform="translate(1504.74 -896.784)" fill="#707070"/>
          <circle id="Ellipse_53-243" data-name="Ellipse 53-243" cx="3.5" cy="3.5" r="3.5" transform="translate(1504.74 -907.784)" fill="#707070"/>
          <circle id="Ellipse_53-244" data-name="Ellipse 53-244" cx="3.5" cy="3.5" r="3.5" transform="translate(1504.74 -918.784)" fill="#707070"/>
          <circle id="Ellipse_53-245" data-name="Ellipse 53-245" cx="3.5" cy="3.5" r="3.5" transform="translate(1504.74 -929.784)" fill="#707070"/>
          <circle id="Ellipse_53-246" data-name="Ellipse 53-246" cx="3.5" cy="3.5" r="3.5" transform="translate(1504.74 -940.784)" fill="#707070"/>
          <circle id="Ellipse_53-247" data-name="Ellipse 53-247" cx="3.5" cy="3.5" r="3.5" transform="translate(1504.74 -951.784)" fill="#707070"/>
          <circle id="Ellipse_53-248" data-name="Ellipse 53-248" cx="3.5" cy="3.5" r="3.5" transform="translate(1504.74 -962.784)" fill="#707070"/>
          <circle id="Ellipse_53-249" data-name="Ellipse 53-249" cx="3.5" cy="3.5" r="3.5" transform="translate(1504.74 -973.784)" fill="#707070"/>
          <circle id="Ellipse_53-250" data-name="Ellipse 53-250" cx="3.5" cy="3.5" r="3.5" transform="translate(1504.74 -984.784)" fill="#707070"/>
          <circle id="Ellipse_53-251" data-name="Ellipse 53-251" cx="3.5" cy="3.5" r="3.5" transform="translate(1504.74 -995.784)" fill="#707070"/>
          <circle id="Ellipse_53-252" data-name="Ellipse 53-252" cx="3.5" cy="3.5" r="3.5" transform="translate(1504.74 -1006.784)" fill="#707070"/>
          <circle id="Ellipse_53-253" data-name="Ellipse 53-253" cx="3.5" cy="3.5" r="3.5" transform="translate(1504.74 -1017.784)" fill="#707070"/>
          <circle id="Ellipse_53-254" data-name="Ellipse 53-254" cx="3.5" cy="3.5" r="3.5" transform="translate(1504.74 -1028.784)" fill="#707070"/>
          <circle id="Ellipse_53-255" data-name="Ellipse 53-255" cx="3.5" cy="3.5" r="3.5" transform="translate(1518.74 -885.784)" fill="#707070"/>
          <circle id="Ellipse_53-256" data-name="Ellipse 53-256" cx="3.5" cy="3.5" r="3.5" transform="translate(1518.74 -896.784)" fill="#707070"/>
          <circle id="Ellipse_53-257" data-name="Ellipse 53-257" cx="3.5" cy="3.5" r="3.5" transform="translate(1518.74 -907.784)" fill="#707070"/>
          <circle id="Ellipse_53-258" data-name="Ellipse 53-258" cx="3.5" cy="3.5" r="3.5" transform="translate(1518.74 -918.784)" fill="#707070"/>
          <circle id="Ellipse_53-259" data-name="Ellipse 53-259" cx="3.5" cy="3.5" r="3.5" transform="translate(1518.74 -929.784)" fill="#707070"/>
          <circle id="Ellipse_53-260" data-name="Ellipse 53-260" cx="3.5" cy="3.5" r="3.5" transform="translate(1518.74 -940.784)" fill="#707070"/>
          <circle id="Ellipse_53-261" data-name="Ellipse 53-261" cx="3.5" cy="3.5" r="3.5" transform="translate(1518.74 -951.784)" fill="#707070"/>
          <circle id="Ellipse_53-262" data-name="Ellipse 53-262" cx="3.5" cy="3.5" r="3.5" transform="translate(1518.74 -962.784)" fill="#707070"/>
          <circle id="Ellipse_53-263" data-name="Ellipse 53-263" cx="3.5" cy="3.5" r="3.5" transform="translate(1518.74 -973.784)" fill="#707070"/>
          <circle id="Ellipse_53-264" data-name="Ellipse 53-264" cx="3.5" cy="3.5" r="3.5" transform="translate(1518.74 -984.784)" fill="#707070"/>
          <circle id="Ellipse_53-265" data-name="Ellipse 53-265" cx="3.5" cy="3.5" r="3.5" transform="translate(1518.74 -995.784)" fill="#707070"/>
          <circle id="Ellipse_53-266" data-name="Ellipse 53-266" cx="3.5" cy="3.5" r="3.5" transform="translate(1518.74 -1006.784)" fill="#707070"/>
          <circle id="Ellipse_53-267" data-name="Ellipse 53-267" cx="3.5" cy="3.5" r="3.5" transform="translate(1518.74 -1017.784)" fill="#707070"/>
          <circle id="Ellipse_53-268" data-name="Ellipse 53-268" cx="3.5" cy="3.5" r="3.5" transform="translate(1518.74 -1028.784)" fill="#707070"/>
          <circle id="Ellipse_53-269" data-name="Ellipse 53-269" cx="3.5" cy="3.5" r="3.5" transform="translate(1532.74 -885.784)" fill="#707070"/>
          <circle id="Ellipse_53-270" data-name="Ellipse 53-270" cx="3.5" cy="3.5" r="3.5" transform="translate(1532.74 -896.784)" fill="#707070"/>
          <circle id="Ellipse_53-271" data-name="Ellipse 53-271" cx="3.5" cy="3.5" r="3.5" transform="translate(1532.74 -907.784)" fill="#707070"/>
          <circle id="Ellipse_53-272" data-name="Ellipse 53-272" cx="3.5" cy="3.5" r="3.5" transform="translate(1532.74 -918.784)" fill="#707070"/>
          <circle id="Ellipse_53-273" data-name="Ellipse 53-273" cx="3.5" cy="3.5" r="3.5" transform="translate(1532.74 -929.784)" fill="#707070"/>
          <circle id="Ellipse_53-274" data-name="Ellipse 53-274" cx="3.5" cy="3.5" r="3.5" transform="translate(1532.74 -940.784)" fill="#707070"/>
          <circle id="Ellipse_53-275" data-name="Ellipse 53-275" cx="3.5" cy="3.5" r="3.5" transform="translate(1532.74 -951.784)" fill="#707070"/>
          <circle id="Ellipse_53-276" data-name="Ellipse 53-276" cx="3.5" cy="3.5" r="3.5" transform="translate(1532.74 -962.784)" fill="#707070"/>
          <circle id="Ellipse_53-277" data-name="Ellipse 53-277" cx="3.5" cy="3.5" r="3.5" transform="translate(1532.74 -973.784)" fill="#707070"/>
          <circle id="Ellipse_53-278" data-name="Ellipse 53-278" cx="3.5" cy="3.5" r="3.5" transform="translate(1532.74 -984.784)" fill="#707070"/>
          <circle id="Ellipse_53-279" data-name="Ellipse 53-279" cx="3.5" cy="3.5" r="3.5" transform="translate(1532.74 -995.784)" fill="#707070"/>
          <circle id="Ellipse_53-280" data-name="Ellipse 53-280" cx="3.5" cy="3.5" r="3.5" transform="translate(1532.74 -1006.784)" fill="#707070"/>
          <circle id="Ellipse_53-281" data-name="Ellipse 53-281" cx="3.5" cy="3.5" r="3.5" transform="translate(1532.74 -1017.784)" fill="#707070"/>
          <circle id="Ellipse_53-282" data-name="Ellipse 53-282" cx="3.5" cy="3.5" r="3.5" transform="translate(1532.74 -1028.784)" fill="#707070"/>
          <circle id="Ellipse_53-283" data-name="Ellipse 53-283" cx="3.5" cy="3.5" r="3.5" transform="translate(1546.74 -885.784)" fill="#707070"/>
          <circle id="Ellipse_53-284" data-name="Ellipse 53-284" cx="3.5" cy="3.5" r="3.5" transform="translate(1546.74 -896.784)" fill="#707070"/>
          <circle id="Ellipse_53-285" data-name="Ellipse 53-285" cx="3.5" cy="3.5" r="3.5" transform="translate(1546.74 -907.784)" fill="#707070"/>
          <circle id="Ellipse_53-286" data-name="Ellipse 53-286" cx="3.5" cy="3.5" r="3.5" transform="translate(1546.74 -918.784)" fill="#707070"/>
          <circle id="Ellipse_53-287" data-name="Ellipse 53-287" cx="3.5" cy="3.5" r="3.5" transform="translate(1546.74 -929.784)" fill="#707070"/>
          <circle id="Ellipse_53-288" data-name="Ellipse 53-288" cx="3.5" cy="3.5" r="3.5" transform="translate(1546.74 -940.784)" fill="#707070"/>
          <circle id="Ellipse_53-289" data-name="Ellipse 53-289" cx="3.5" cy="3.5" r="3.5" transform="translate(1546.74 -951.784)" fill="#707070"/>
          <circle id="Ellipse_53-290" data-name="Ellipse 53-290" cx="3.5" cy="3.5" r="3.5" transform="translate(1546.74 -962.784)" fill="#707070"/>
          <circle id="Ellipse_53-291" data-name="Ellipse 53-291" cx="3.5" cy="3.5" r="3.5" transform="translate(1546.74 -973.784)" fill="#707070"/>
          <circle id="Ellipse_53-292" data-name="Ellipse 53-292" cx="3.5" cy="3.5" r="3.5" transform="translate(1546.74 -984.784)" fill="#707070"/>
          <circle id="Ellipse_53-293" data-name="Ellipse 53-293" cx="3.5" cy="3.5" r="3.5" transform="translate(1546.74 -995.784)" fill="#707070"/>
          <circle id="Ellipse_53-294" data-name="Ellipse 53-294" cx="3.5" cy="3.5" r="3.5" transform="translate(1546.74 -1006.784)" fill="#707070"/>
          <circle id="Ellipse_53-295" data-name="Ellipse 53-295" cx="3.5" cy="3.5" r="3.5" transform="translate(1546.74 -1017.784)" fill="#707070"/>
          <circle id="Ellipse_53-296" data-name="Ellipse 53-296" cx="3.5" cy="3.5" r="3.5" transform="translate(1546.74 -1028.784)" fill="#707070"/>
          <circle id="Ellipse_53-297" data-name="Ellipse 53-297" cx="3.5" cy="3.5" r="3.5" transform="translate(1560.74 -885.784)" fill="#707070"/>
          <circle id="Ellipse_53-298" data-name="Ellipse 53-298" cx="3.5" cy="3.5" r="3.5" transform="translate(1560.74 -896.784)" fill="#707070"/>
          <circle id="Ellipse_53-299" data-name="Ellipse 53-299" cx="3.5" cy="3.5" r="3.5" transform="translate(1560.74 -907.784)" fill="#707070"/>
          <circle id="Ellipse_53-300" data-name="Ellipse 53-300" cx="3.5" cy="3.5" r="3.5" transform="translate(1560.74 -918.784)" fill="#707070"/>
          <circle id="Ellipse_53-301" data-name="Ellipse 53-301" cx="3.5" cy="3.5" r="3.5" transform="translate(1560.74 -929.784)" fill="#707070"/>
          <circle id="Ellipse_53-302" data-name="Ellipse 53-302" cx="3.5" cy="3.5" r="3.5" transform="translate(1560.74 -940.784)" fill="#707070"/>
          <circle id="Ellipse_53-303" data-name="Ellipse 53-303" cx="3.5" cy="3.5" r="3.5" transform="translate(1560.74 -951.784)" fill="#707070"/>
          <circle id="Ellipse_53-304" data-name="Ellipse 53-304" cx="3.5" cy="3.5" r="3.5" transform="translate(1560.74 -962.784)" fill="#707070"/>
          <circle id="Ellipse_53-305" data-name="Ellipse 53-305" cx="3.5" cy="3.5" r="3.5" transform="translate(1560.74 -973.784)" fill="#707070"/>
          <circle id="Ellipse_53-306" data-name="Ellipse 53-306" cx="3.5" cy="3.5" r="3.5" transform="translate(1560.74 -984.784)" fill="#707070"/>
          <circle id="Ellipse_53-307" data-name="Ellipse 53-307" cx="3.5" cy="3.5" r="3.5" transform="translate(1560.74 -995.784)" fill="#707070"/>
          <circle id="Ellipse_53-308" data-name="Ellipse 53-308" cx="3.5" cy="3.5" r="3.5" transform="translate(1560.74 -1006.784)" fill="#707070"/>
          <circle id="Ellipse_53-309" data-name="Ellipse 53-309" cx="3.5" cy="3.5" r="3.5" transform="translate(1560.74 -1017.784)" fill="#707070"/>
          <circle id="Ellipse_53-310" data-name="Ellipse 53-310" cx="3.5" cy="3.5" r="3.5" transform="translate(1560.74 -1028.784)" fill="#707070"/>
          <circle id="Ellipse_53-311" data-name="Ellipse 53-311" cx="3.5" cy="3.5" r="3.5" transform="translate(1574.74 -885.784)" fill="#707070"/>
          <circle id="Ellipse_53-312" data-name="Ellipse 53-312" cx="3.5" cy="3.5" r="3.5" transform="translate(1574.74 -896.784)" fill="#707070"/>
          <circle id="Ellipse_53-313" data-name="Ellipse 53-313" cx="3.5" cy="3.5" r="3.5" transform="translate(1574.74 -907.784)" fill="#707070"/>
          <circle id="Ellipse_53-314" data-name="Ellipse 53-314" cx="3.5" cy="3.5" r="3.5" transform="translate(1574.74 -918.784)" fill="#707070"/>
          <circle id="Ellipse_53-315" data-name="Ellipse 53-315" cx="3.5" cy="3.5" r="3.5" transform="translate(1574.74 -929.784)" fill="#707070"/>
          <circle id="Ellipse_53-316" data-name="Ellipse 53-316" cx="3.5" cy="3.5" r="3.5" transform="translate(1574.74 -940.784)" fill="#707070"/>
          <circle id="Ellipse_53-317" data-name="Ellipse 53-317" cx="3.5" cy="3.5" r="3.5" transform="translate(1574.74 -951.784)" fill="#707070"/>
          <circle id="Ellipse_53-318" data-name="Ellipse 53-318" cx="3.5" cy="3.5" r="3.5" transform="translate(1574.74 -962.784)" fill="#707070"/>
          <circle id="Ellipse_53-319" data-name="Ellipse 53-319" cx="3.5" cy="3.5" r="3.5" transform="translate(1574.74 -973.784)" fill="#707070"/>
          <circle id="Ellipse_53-320" data-name="Ellipse 53-320" cx="3.5" cy="3.5" r="3.5" transform="translate(1574.74 -984.784)" fill="#707070"/>
          <circle id="Ellipse_53-321" data-name="Ellipse 53-321" cx="3.5" cy="3.5" r="3.5" transform="translate(1574.74 -995.784)" fill="#707070"/>
          <circle id="Ellipse_53-322" data-name="Ellipse 53-322" cx="3.5" cy="3.5" r="3.5" transform="translate(1574.74 -1006.784)" fill="#707070"/>
          <circle id="Ellipse_53-323" data-name="Ellipse 53-323" cx="3.5" cy="3.5" r="3.5" transform="translate(1574.74 -1017.784)" fill="#707070"/>
          <circle id="Ellipse_53-324" data-name="Ellipse 53-324" cx="3.5" cy="3.5" r="3.5" transform="translate(1574.74 -1028.784)" fill="#707070"/>
          <circle id="Ellipse_53-325" data-name="Ellipse 53-325" cx="3.5" cy="3.5" r="3.5" transform="translate(1588.74 -885.784)" fill="#707070"/>
          <circle id="Ellipse_53-326" data-name="Ellipse 53-326" cx="3.5" cy="3.5" r="3.5" transform="translate(1588.74 -896.784)" fill="#707070"/>
          <circle id="Ellipse_53-327" data-name="Ellipse 53-327" cx="3.5" cy="3.5" r="3.5" transform="translate(1588.74 -907.784)" fill="#707070"/>
          <circle id="Ellipse_53-328" data-name="Ellipse 53-328" cx="3.5" cy="3.5" r="3.5" transform="translate(1588.74 -918.784)" fill="#707070"/>
          <circle id="Ellipse_53-329" data-name="Ellipse 53-329" cx="3.5" cy="3.5" r="3.5" transform="translate(1588.74 -929.784)" fill="#707070"/>
          <circle id="Ellipse_53-330" data-name="Ellipse 53-330" cx="3.5" cy="3.5" r="3.5" transform="translate(1588.74 -940.784)" fill="#707070"/>
          <circle id="Ellipse_53-331" data-name="Ellipse 53-331" cx="3.5" cy="3.5" r="3.5" transform="translate(1588.74 -951.784)" fill="#707070"/>
          <circle id="Ellipse_53-332" data-name="Ellipse 53-332" cx="3.5" cy="3.5" r="3.5" transform="translate(1588.74 -962.784)" fill="#707070"/>
          <circle id="Ellipse_53-333" data-name="Ellipse 53-333" cx="3.5" cy="3.5" r="3.5" transform="translate(1588.74 -973.784)" fill="#707070"/>
          <circle id="Ellipse_53-334" data-name="Ellipse 53-334" cx="3.5" cy="3.5" r="3.5" transform="translate(1588.74 -984.784)" fill="#707070"/>
          <circle id="Ellipse_53-335" data-name="Ellipse 53-335" cx="3.5" cy="3.5" r="3.5" transform="translate(1588.74 -995.784)" fill="#707070"/>
          <circle id="Ellipse_53-336" data-name="Ellipse 53-336" cx="3.5" cy="3.5" r="3.5" transform="translate(1588.74 -1006.784)" fill="#707070"/>
          <circle id="Ellipse_53-337" data-name="Ellipse 53-337" cx="3.5" cy="3.5" r="3.5" transform="translate(1588.74 -1017.784)" fill="#707070"/>
          <circle id="Ellipse_53-338" data-name="Ellipse 53-338" cx="3.5" cy="3.5" r="3.5" transform="translate(1588.74 -1028.784)" fill="#707070"/>
          <circle id="Ellipse_53-339" data-name="Ellipse 53-339" cx="3.5" cy="3.5" r="3.5" transform="translate(1602.74 -885.784)" fill="#707070"/>
          <circle id="Ellipse_53-340" data-name="Ellipse 53-340" cx="3.5" cy="3.5" r="3.5" transform="translate(1602.74 -896.784)" fill="#707070"/>
          <circle id="Ellipse_53-341" data-name="Ellipse 53-341" cx="3.5" cy="3.5" r="3.5" transform="translate(1602.74 -907.784)" fill="#707070"/>
          <circle id="Ellipse_53-342" data-name="Ellipse 53-342" cx="3.5" cy="3.5" r="3.5" transform="translate(1602.74 -918.784)" fill="#707070"/>
          <circle id="Ellipse_53-343" data-name="Ellipse 53-343" cx="3.5" cy="3.5" r="3.5" transform="translate(1602.74 -929.784)" fill="#707070"/>
          <circle id="Ellipse_53-344" data-name="Ellipse 53-344" cx="3.5" cy="3.5" r="3.5" transform="translate(1602.74 -940.784)" fill="#707070"/>
          <circle id="Ellipse_53-345" data-name="Ellipse 53-345" cx="3.5" cy="3.5" r="3.5" transform="translate(1602.74 -951.784)" fill="#707070"/>
          <circle id="Ellipse_53-346" data-name="Ellipse 53-346" cx="3.5" cy="3.5" r="3.5" transform="translate(1602.74 -962.784)" fill="#707070"/>
          <circle id="Ellipse_53-347" data-name="Ellipse 53-347" cx="3.5" cy="3.5" r="3.5" transform="translate(1602.74 -973.784)" fill="#707070"/>
          <circle id="Ellipse_53-348" data-name="Ellipse 53-348" cx="3.5" cy="3.5" r="3.5" transform="translate(1602.74 -984.784)" fill="#707070"/>
          <circle id="Ellipse_53-349" data-name="Ellipse 53-349" cx="3.5" cy="3.5" r="3.5" transform="translate(1602.74 -995.784)" fill="#707070"/>
          <circle id="Ellipse_53-350" data-name="Ellipse 53-350" cx="3.5" cy="3.5" r="3.5" transform="translate(1602.74 -1006.784)" fill="#707070"/>
          <circle id="Ellipse_53-351" data-name="Ellipse 53-351" cx="3.5" cy="3.5" r="3.5" transform="translate(1602.74 -1017.784)" fill="#707070"/>
          <circle id="Ellipse_53-352" data-name="Ellipse 53-352" cx="3.5" cy="3.5" r="3.5" transform="translate(1602.74 -1028.784)" fill="#707070"/>
        </g>
      </g>
    </g>
  </g>
  <g id="Group_5917" data-name="Group 5917" transform="translate(-492.057 -299.16) rotate(-1)">
    <path id="Path_7665" data-name="Path 7665" d="M860.259,937.213a21.037,21.037,0,0,0-5.688-1.136A20.638,20.638,0,1,0,872.771,950a21.074,21.074,0,0,0-2.584-5.193l.823-1.076,23.665,18.1,13.593-17.772a24.083,24.083,0,0,1-17.176-4.763,24.567,24.567,0,0,1,29.85-39.025,24.089,24.089,0,0,1,9.094,15.331l13.6-17.778-60.628-46.376-48.958,64.008,27.036,20.68Z" transform="translate(-305.276 -260.629)" fill="#ff9a4d"/>
    <path id="Path_7666" data-name="Path 7666" d="M416.287,673.27c-18.647-15.549-38.52-22.021-47.265-15.865-.149.1-.292.21-.432.323a9.753,9.753,0,0,0-1.465,1.42,10.7,10.7,0,0,0-2.345,5.719,64.9,64.9,0,0,1-2.692,12.653L344.82,729.2a2.362,2.362,0,0,1-1.175,1.359,5.911,5.911,0,0,0-.73.414,2.389,2.389,0,0,0-.421.4L325.528,751.7a2.347,2.347,0,0,0-.545,1.386,11.226,11.226,0,0,0,1.859,6.878,52.4,52.4,0,0,0,9.13,9.55h0l.119.1h0a52.378,52.378,0,0,0,11.03,7.273,11.217,11.217,0,0,0,7.1.6,2.346,2.346,0,0,0,1.266-.784l1.125-1.348a1.445,1.445,0,0,0,.154.769c6.884,13.353,12.783,18.112,27.52,22.474l8.528-10.22a1.133,1.133,0,0,0,.1-.135c.009-.015.017-.031.025-.045q.025-.046.048-.1c.008-.018.014-.036.021-.054s.021-.062.031-.091.01-.037.014-.056.012-.064.016-.1c0-.017,0-.033.006-.05a1,1,0,0,0,0-.12c0-.009,0-.018,0-.026a1.107,1.107,0,0,0-.019-.144c0-.014-.007-.027-.011-.041-.008-.032-.016-.063-.026-.094a1.179,1.179,0,0,0-.055-.136c0-.009-.007-.018-.011-.027-.013-.025-.029-.049-.044-.073s-.023-.042-.037-.061l-.029-.036a1.041,1.041,0,0,0-.067-.082c-.012-.014-.027-.026-.04-.039s-.045-.044-.069-.065-.039-.029-.059-.043-.044-.033-.067-.047a1.1,1.1,0,0,0-.125-.066c-.011,0-.02-.011-.031-.016l-.02-.007a1.1,1.1,0,0,0-.122-.039l-.047-.011a.843.843,0,0,0-.11-.018l-.047-.005a1.221,1.221,0,0,0-.162,0c-.076.005-.151.009-.225.01h-.07c-.052,0-.1,0-.153,0l-.081,0-.14-.009-.08-.007-.141-.017-.07-.01c-.06-.01-.119-.022-.177-.036l-.025-.005c-.066-.016-.129-.035-.192-.055l-.055-.021c-.032-.011-.063-.024-.094-.038l-.024-.009a1.784,1.784,0,0,1-.216-.111c-.024-.015-.046-.032-.07-.047-.086-.056-.172-.112-.253-.172l-.031-.026c-.064-.049-.125-.1-.186-.155l-.055-.047c-.024-.02-.045-.041-.067-.062-.07-.065-.139-.133-.2-.2l-.04-.041a.206.206,0,0,1-.013-.016q-.1-.115-.2-.237l-.049-.066c-.026-.035-.049-.071-.073-.107s-.048-.067-.07-.1l-.054-.084c-.055-.091-.109-.181-.155-.276l-.006-.011h0c-.052-.1-.1-.209-.143-.315-.014-.035-.025-.07-.038-.1-.024-.065-.048-.13-.068-.2-.006-.017-.013-.034-.018-.052a2.691,2.691,0,0,0-.13-.342c-.008-.018-.016-.035-.024-.053-.036-.075-.078-.145-.12-.215-.025-.04-.046-.084-.073-.123a2.64,2.64,0,0,0-.222-.286l0,0a2.568,2.568,0,0,0-.258-.248c-.04-.033-.083-.062-.126-.094-.06-.045-.121-.092-.185-.132l-.05-.029a2.658,2.658,0,0,0-.311-.159,2.741,2.741,0,0,0-.268-.092c-.036-.012-.068-.027-.1-.035a2.858,2.858,0,0,0-.393-.073c-.1-.011-.193-.025-.287-.043-.029-.005-.057-.013-.086-.019-.066-.014-.133-.027-.2-.045-.037-.009-.072-.021-.11-.033-.057-.017-.114-.032-.17-.052-.04-.014-.079-.03-.119-.045s-.1-.037-.156-.06l0,0-.034-.016c-.085-.037-.169-.076-.252-.12-.032-.016-.064-.036-.1-.054-.062-.034-.125-.07-.185-.109l-.037-.025-.113-.074-.074-.052c-.077-.055-.152-.114-.226-.174l-.045-.04c-.049-.041-.1-.083-.141-.127a.462.462,0,0,1-.048-.045c-.065-.063-.128-.129-.188-.2l-.009-.008c-.017-.018-.033-.039-.049-.058-.046-.053-.089-.1-.131-.159-.022-.028-.041-.055-.061-.083s-.048-.066-.071-.1l-.03-.042c-.024-.036-.047-.073-.07-.11s-.055-.089-.081-.134-.042-.075-.062-.114-.027-.051-.039-.078l-.026-.051c-.028-.058-.055-.117-.08-.177-.015-.036-.033-.073-.047-.111-.025-.066-.048-.13-.071-.2-.009-.027-.019-.053-.027-.079s-.01-.028-.014-.042a2.7,2.7,0,0,0-.131-.342c-.008-.018-.015-.036-.024-.054a2.3,2.3,0,0,0-.118-.209c-.026-.044-.05-.09-.078-.132a2.57,2.57,0,0,0-.2-.256c-.009-.01-.016-.022-.025-.032a2.688,2.688,0,0,0-.261-.252c-.039-.033-.081-.06-.122-.091-.062-.047-.123-.094-.189-.135l-.046-.027a2.757,2.757,0,0,0-.305-.158l-.01,0c-.078-.034-.162-.058-.244-.084-.043-.013-.083-.031-.126-.043a2.729,2.729,0,0,0-.391-.072c-.1-.011-.192-.026-.287-.044-.031-.006-.062-.015-.093-.021-.064-.013-.127-.027-.19-.042-.037-.009-.074-.022-.111-.033-.056-.017-.114-.032-.17-.051-.04-.014-.079-.031-.119-.045s-.1-.037-.156-.06l0,0-.034-.016c-.085-.037-.169-.077-.252-.12-.032-.016-.064-.036-.1-.054-.062-.034-.125-.07-.185-.109l-.037-.025-.113-.074-.074-.052c-.077-.055-.152-.113-.226-.175l-.045-.04c-.049-.041-.1-.084-.141-.127a.486.486,0,0,1-.048-.044c-.065-.064-.127-.129-.188-.2l-.01-.008c-.017-.019-.032-.039-.049-.058-.046-.053-.09-.105-.132-.16-.022-.028-.041-.055-.061-.083s-.048-.066-.071-.1l-.03-.042-.07-.109c-.028-.044-.054-.09-.081-.135s-.042-.075-.062-.114-.027-.051-.039-.078-.017-.034-.026-.051q-.043-.088-.079-.176c-.015-.036-.033-.073-.047-.112-.025-.066-.048-.13-.071-.195-.009-.027-.018-.053-.027-.079s-.01-.028-.015-.043a2.718,2.718,0,0,0-.13-.34l-.025-.056c-.034-.071-.075-.138-.115-.205-.027-.046-.052-.093-.082-.138a2.669,2.669,0,0,0-.173-.225c-.017-.02-.032-.043-.049-.062a2.674,2.674,0,0,0-.259-.253c-.036-.03-.074-.054-.111-.083-.064-.049-.128-.1-.2-.142l-.04-.024a2.594,2.594,0,0,0-.3-.156l-.019-.009c-.078-.034-.162-.058-.245-.085-.042-.013-.081-.031-.124-.042a2.716,2.716,0,0,0-.39-.073c-.1-.011-.207-.027-.31-.047-.034-.006-.067-.015-.1-.022-.07-.015-.139-.031-.207-.049-.039-.01-.079-.023-.117-.035-.062-.019-.124-.039-.186-.061-.041-.014-.082-.03-.122-.046l-.1-.04-.072-.031c-.052-.023-.1-.048-.155-.073s-.1-.052-.15-.08-.1-.057-.15-.087l-.081-.051c-.027-.017-.053-.033-.079-.05s-.064-.043-.1-.066c-.06-.043-.119-.089-.178-.136l-.081-.065-.029-.025c-.074-.062-.147-.127-.217-.2s-.108-.116-.161-.175c-.017-.018-.035-.036-.051-.055l-.06-.07c-.054-.066-.107-.133-.157-.2-.012-.017-.026-.034-.037-.051s-.008-.014-.012-.02c-.056-.081-.11-.163-.159-.248-.012-.021-.023-.043-.036-.065-.029-.053-.058-.107-.085-.161l-.026-.048c-.023-.047-.044-.1-.064-.144s-.048-.112-.071-.168-.036-.1-.053-.148-.024-.072-.035-.108c-.006-.017-.011-.033-.016-.05q-.047-.159-.082-.323c-.005-.024-.012-.047-.017-.071-.025-.132-.044-.265-.057-.4,0-.037,0-.073-.007-.109-.007-.1-.01-.2-.01-.3,0-.044,0-.088,0-.133q.006-.152.023-.3c0-.036.006-.072.011-.107q.028-.2.075-.4c.006-.026.015-.051.021-.077q.042-.161.1-.32c.014-.042.03-.083.047-.125.034-.088.07-.175.111-.26.021-.044.041-.088.064-.131a4.227,4.227,0,0,1,.211-.368,2.088,2.088,0,0,0,.137-.238c.013-.025.023-.051.035-.078.026-.058.051-.115.071-.174.01-.03.02-.06.03-.09.018-.059.033-.118.045-.178.006-.028.013-.056.018-.084a2.07,2.07,0,0,0,.026-.236c0-.009,0-.018,0-.027a1.984,1.984,0,0,0-.007-.265c0-.026-.008-.051-.01-.078-.008-.063-.018-.124-.032-.186-.007-.031-.015-.061-.023-.091-.013-.048-.03-.1-.046-.143s-.044-.117-.071-.174-.057-.123-.09-.183c-.124-.211-1-1.819-1.653-3.028a1.047,1.047,0,0,0-1.07-.54l3.377-4.047a2.4,2.4,0,0,0,.314-.485,5.869,5.869,0,0,0,.277-.792,2.36,2.36,0,0,1,1.127-1.4l47.756-26.24A64.921,64.921,0,0,1,433.9,722.54a10.694,10.694,0,0,0,5.2-3.332,9.749,9.749,0,0,0,1.136-1.7c.087-.158.166-.319.24-.483,4.493-9.7-5.432-28.1-24.068-43.66h0l-.119-.1Zm-21.354,32.2q-1.617-1.243-3.218-2.578l-.053-.044q-1.6-1.334-3.113-2.7a2.361,2.361,0,1,1,3.711-2.783A7.725,7.725,0,0,0,394.2,699.8l.028.023.028.024a7.72,7.72,0,0,0,2.745,1.477,2.361,2.361,0,1,1-2.074,4.149Zm19.627-29.955c16.708,13.942,26.7,31.126,23.622,39.668a7.278,7.278,0,0,1-1.257,2.215c-1.658,1.987-4.356,2.966-7.772,3.038-7.462.164-18.344-4-29.26-11.384a2.365,2.365,0,0,1-.64-3.283q.067-.1.143-.191l4.633-5.552a2.375,2.375,0,0,1,.271-.27,7.743,7.743,0,0,0-.1-11.816l-.028-.023-.028-.024a7.747,7.747,0,0,0-11.644,2.013,2.336,2.336,0,0,1-.217.314l-4.633,5.552a2.365,2.365,0,0,1-3.331.3,2.259,2.259,0,0,1-.175-.162c-9.223-9.417-15.263-19.378-16.437-26.75-.54-3.374-.06-6.2,1.6-8.191a7.282,7.282,0,0,1,1.954-1.633c7.854-4.554,26.548,2.2,43.256,16.141Z" transform="translate(289.605 97.917)" fill="#8d8d8d"/>
    <g id="Group_5906" data-name="Group 5906" transform="translate(528.751 743.438)">
      <path id="Path_7640" data-name="Path 7640" d="M183.043,661.282c-.275.066-.254.449-.327.7-1.859,6.736-3.581,13.518-5.23,20.31q-.183.753-.365,1.506c-.1.386-.19.772-.284,1.165q-1.031,4.276-2.019,8.562c-.1.41-.2.828-.289,1.242-3.435,14.892-6.579,29.849-9.744,44.81q-2.233,10.506-4.48,21a2.206,2.206,0,0,0,.565,2.354,2.3,2.3,0,0,0,3.649-1.083c1.07-3.369,2.115-6.748,3.159-10.123,3.13-10.053,6.324-20.084,9.368-30.169,1.994-6.631,3.753-13.337,5.61-20.015l.259-.923.335-1.206q1.317-4.75,2.632-9.5c.142-.488.277-.977.412-1.472q1.351-4.842,2.686-9.688a2.557,2.557,0,0,0,.132-1.13,53.529,53.529,0,0,0-2.984-11.351,19.586,19.586,0,0,0-2.45-4.453C183.507,661.586,183.375,661.206,183.043,661.282Z" transform="translate(-160.211 -593.985)" fill="#fffb7e"/>
      <path id="Path_7641" data-name="Path 7641" d="M231.368,621.2a1.085,1.085,0,0,0-.971.793c-1.267,3.709-2.415,7.451-3.479,11.223a.534.534,0,0,0-.053.161,2.229,2.229,0,0,1,1.7,1.2,21.069,21.069,0,0,1,2.645,4.8,48.053,48.053,0,0,1,2.454,8.3.157.157,0,0,0,.306.014,206.2,206.2,0,0,0,4.861-21.036,3.666,3.666,0,0,0-1.439-3.779A7.29,7.29,0,0,0,231.368,621.2Z" transform="translate(-203.785 -567.721)" fill="#fffb7e"/>
      <path id="Path_7642" data-name="Path 7642" d="M244.258,605.872a3.393,3.393,0,0,0-3.763,1.151A10.354,10.354,0,0,0,239,609.975c-.171.458-.077.622.443.548a7.86,7.86,0,0,1,7.055,2.7c.112.138.212.408.458.31.192-.075.15-.313.172-.487a11.335,11.335,0,0,0-.082-3.984,4.639,4.639,0,0,0-1.26-2.212c-.276-.262-.559-.48-1,0C244.955,606.2,244.664,606.005,244.258,605.872Z" transform="translate(-211.668 -557.654)" fill="#fffb7e"/>
      <path id="Path_7643" data-name="Path 7643" d="M264.886,479.9c-.121-.054-.2.078-.263.164a32.684,32.684,0,0,0-3.71,6.439,24.149,24.149,0,0,1,3.66-3.339,44.394,44.394,0,0,0-5.82,13.694c.272-.019.331-.2.4-.347a65.537,65.537,0,0,1,5.612-8.979,2.481,2.481,0,0,0,.48-2.012,21.149,21.149,0,0,1-.238-5.145C265.03,480.206,265.113,479.986,264.886,479.9Z" transform="translate(-224.632 -475.404)" fill="#fffb7e"/>
      <path id="Path_7644" data-name="Path 7644" d="M261.708,514.176c-.114.576-.212,1.015-.287,1.449a190.5,190.5,0,0,1-7.367,28.742c-.105.294-.453.647-.014.974.532.39.838.267,1.06-.423a113.439,113.439,0,0,0,2.668-11.174c.868-4.337,2.124-8.57,3.292-12.835a20.647,20.647,0,0,0,.837-5.9A1.326,1.326,0,0,0,261.708,514.176Z" transform="translate(-221.41 -497.822)" fill="#fffb7e"/>
      <path id="Path_7645" data-name="Path 7645" d="M253.366,540.739c-.046-.021-.088-.031-.126-.049-.153.391-.311.787-.458,1.182a77.085,77.085,0,0,0-4.327,18.407c-.055.467-.178.938-.195,1.4-.011.3-.385.765.221.88.718.124.98-.123,1.04-.835.111-1.383.205-2.757.353-4.138a85.9,85.9,0,0,1,3.325-16.073c.054-.191.113-.389.16-.586A1.2,1.2,0,0,0,253.366,540.739Z" transform="translate(-217.692 -515.156)" fill="#fffb7e"/>
      <path id="Path_7646" data-name="Path 7646" d="M275.756,503.522a3.267,3.267,0,0,0-.552,1.146c-.081.2-.1.405.189.113.111-.1.115.15.1.217a3.8,3.8,0,0,0,.456,2.595,13.74,13.74,0,0,1,.732,6.029,72.145,72.145,0,0,1-2.066,11.562,1.116,1.116,0,0,0-.056.806,11.9,11.9,0,0,0,.926-2.108A27.163,27.163,0,0,0,277,512.446a70.97,70.97,0,0,0-.989-8.3C275.975,503.934,276.014,503.681,275.756,503.522Z" transform="translate(-234.932 -490.857)" fill="#fffb7e"/>
      <path id="Path_7647" data-name="Path 7647" d="M281.233,466.946c-.661,2.172.874,12.45,2.414,16.211C283.213,477.742,282.026,472.45,281.233,466.946Z" transform="translate(-239.225 -466.946)" fill="#fffb7e"/>
      <path id="Path_7648" data-name="Path 7648" d="M263.311,578.852c-.56,1.628-1.1,3.176-1.785,4.679a27.942,27.942,0,0,1-2.232,4.109.918.918,0,0,0,.106,1.287,1.139,1.139,0,0,0,.324.177c.43.181.425-.229.513-.437.722-1.7,1.417-3.425,2.126-5.138a15.107,15.107,0,0,0,1.052-4.128A.554.554,0,0,0,263.311,578.852Z" transform="translate(-224.846 -540.104)" fill="#fffb7e"/>
      <path id="Path_7649" data-name="Path 7649" d="M244.673,592.9l-.2-.018c-.135,1.277-.685,2.505-.348,3.831.044.191,0,.534.35.453.293-.064.661-.164.616-.584C244.969,595.356,244.816,594.137,244.673,592.9Z" transform="translate(-215.001 -549.278)" fill="#fffb7e"/>
      <path id="Path_7650" data-name="Path 7650" d="M264.334,602.6l-.2-.111c-.529.844-1.09,1.675-1.579,2.546a.632.632,0,0,0,.32.81c.351.166.388-.257.489-.473A14.736,14.736,0,0,0,264.334,602.6Z" transform="translate(-227.087 -555.558)" fill="#fffb7e"/>
    </g>
    <g id="Group_5907" data-name="Group 5907" transform="translate(661.257 588.505)">
      <path id="Path_7651" data-name="Path 7651" d="M1286.632,784.2c4.149,12.376,17.423,51.757,21.866,65.014.081.235.16.472.236.69a1.691,1.691,0,0,1-.387,1.711,2.6,2.6,0,0,1-.232.232c-2.279,2.376-6.374,6.52-10.863,11.031-.448.472-.916.929-1.382,1.4-6.6,6.657-13.719,13.807-16.979,17.18a1.666,1.666,0,0,1-1.592.469l-36.763-8.486a1.722,1.722,0,0,1-1.227-1.143c-2.546-8.069-10.9-31.955-13.388-39.726a1.686,1.686,0,0,1,.385-1.711c2.1-2.126,5.281-5.359,9.06-9.189.457-.464.915-.928,1.38-1.4,3.335-3.387,7.063-7.169,10.864-11.031l1.694-1.709c10.287-10.42,20.823-21.106,25.672-26.035a1.692,1.692,0,0,1,1.6-.449h.029a1.706,1.706,0,0,1,1.273,2.03l-8.854,38.336-.577,2.494-1.416,6.1a1.707,1.707,0,0,1-1.413,1.285,9.233,9.233,0,0,0-6.738,4.563,10.68,10.68,0,0,0-.833,1.79c-1.779,4.991.057,11.347,6.322,13.2a9.312,9.312,0,0,0,9.495-2.064,10.516,10.516,0,0,0,1.3-1.466c3.083-4.237,3.14-10.767-1.981-14.272a1.671,1.671,0,0,1-.683-1.776l.894-3.877.578-2.494,9.371-40.561a1.682,1.682,0,0,1,2.013-1.266h.009l.028,0A1.692,1.692,0,0,1,1286.632,784.2Z" transform="translate(-1225.833 -781)" fill="#ff6868"/>
      <path id="Path_7652" data-name="Path 7652" d="M1289.985,1016.16a4.589,4.589,0,0,1-.74,1.656,4.74,4.74,0,0,1-4.933,1.886l-29.662-6.86a4.722,4.722,0,0,1-3.554-5.652v-.011a4.733,4.733,0,0,1,5.674-3.543l29.671,6.849a4.731,4.731,0,0,1,3.546,5.673Z" transform="translate(-1239.823 -904.809)" fill="#ff6868"/>
    </g>
    <g id="Group_5908" data-name="Group 5908" transform="translate(766.207 594.224)">
      <path id="Path_7653" data-name="Path 7653" d="M1378.154,522.1a1.22,1.22,0,0,1,.569.328l11.022,10.846a2.087,2.087,0,0,1-1.07-.208,13.81,13.81,0,0,0-8.08-.293l-.175.05a13.953,13.953,0,0,0-7.241,4.716.989.989,0,0,1-.426.4L1376.629,523A1.257,1.257,0,0,1,1378.154,522.1Z" transform="translate(-1371.038 -522.061)" fill="#ababd6"/>
      <path id="Path_7654" data-name="Path 7654" d="M1378.154,522.1a1.22,1.22,0,0,1,.569.328l11.022,10.846a2.087,2.087,0,0,1-1.07-.208,13.81,13.81,0,0,0-8.08-.293l-.175.05a13.953,13.953,0,0,0-7.241,4.716.989.989,0,0,1-.426.4L1376.629,523A1.257,1.257,0,0,1,1378.154,522.1Z" transform="translate(-1371.038 -522.061)" fill="#ababd6"/>
      <path id="Path_7655" data-name="Path 7655" d="M1368.4,586.221a5.584,5.584,0,0,0,7.736-1.59q.1-.147.186-.3a6.373,6.373,0,0,0,11.637-3.221,5.56,5.56,0,0,0,7.576-2.105c.023-.04.045-.081.066-.122a.611.611,0,0,1,.063.172l2.447,8.838.624,2.237,1.878,6.791.4,1.456,1.712,6.2.514,1.826,19.683,68.2a1.257,1.257,0,0,1-.877,1.545l-24.729,6.849a1.258,1.258,0,0,1-1.55-.867h0l.005-.009-17.68-60.946-.382-1.382-3.763-13.572-.5-1.816-3.622-13.08-.412-1.461-.989-3.609-.04.011Z" transform="translate(-1368.389 -556.558)" fill="#ababd6"/>
    </g>
    <path id="Path_7656" data-name="Path 7656" d="M776.388,774.953a2.785,2.785,0,0,0,.691,2.214l5.817,6.585a2.893,2.893,0,0,0,4.007.332,2.775,2.775,0,0,0,.385-.4l23.143-29.562a2.712,2.712,0,0,0,.266-2.924l-3.863-7.556-7.439-14.552a2.713,2.713,0,0,1,1.146-3.66l.1-.051a2.846,2.846,0,0,1,1.189-.272l22.823.089a3.592,3.592,0,0,0,3.617-3.1h0a3.744,3.744,0,0,0-2.682-4.032l-21.977-6.549a2.839,2.839,0,0,1-1.914-3.5,2.686,2.686,0,0,1,.6-1.038l10.9-11.835,5.665-6.149a2.7,2.7,0,0,0,.5-2.89l-14.651-35.161A2.917,2.917,0,0,0,801,649.35a2.844,2.844,0,0,0-.5.252l-7.292,4.644a2.715,2.715,0,0,0-.837,3.748c.019.031.038.06.059.089l0,0a2.937,2.937,0,0,0,2,1.253,2.847,2.847,0,0,0,1.945-.408l1.528-.974a2.9,2.9,0,0,1,3.935.845,2.862,2.862,0,0,1,.269.5l10.656,25.564a2.716,2.716,0,0,1-.5,2.894l-1.994,2.164L792.143,709.6a2.752,2.752,0,0,0,.2,3.887l.051.044a2.922,2.922,0,0,0,1.072.607l16.966,5.314-17.685.182A2.729,2.729,0,0,0,790,722.348c0,.032,0,.064,0,.1a2.794,2.794,0,0,0,.306,1.174l12.37,24.193,1.361,2.662a2.722,2.722,0,0,1-.266,2.924l-16.831,21.5a2.856,2.856,0,0,1-3.975.458,2.892,2.892,0,0,1-.416-.386l-1.22-1.381a2.893,2.893,0,0,0-4.008-.333A2.68,2.68,0,0,0,776.388,774.953Z" transform="translate(-12.949 119.942)" fill="#7cf28f"/>
  </g>
  <text id="We_service_Brands_Businesses_using_the_art_of_design_to_grow_launch_and_build_Network_in_this_Connected_World._" data-name="We service Brands &amp; Businesses using the art of design, to grow, launch , and build Network in this Connected World. " transform="translate(21 648)" fill="#fff" font-size="18" font-family="Poppins-Regular, Poppins"><tspan x="0" y="19">We service Brands &amp; Businesses using </tspan><tspan x="0" y="46">the art of design, to grow, launch , and </tspan><tspan x="0" y="73">build Network in this Connected World. </tspan></text>
  <g id="Group_5929" data-name="Group 5929" transform="translate(21 793)">
    <g id="Group_5911" data-name="Group 5911" transform="translate(184.492 4.682)">
      <text id="_2020_TaekondaINC._All_Rights_Reserved." data-name="© 2020 TaekondaINC. All Rights Reserved." transform="translate(0 7)" fill="#fff" font-size="7" font-family="Poppins-Regular, Poppins" letter-spacing="0.069em"><tspan x="0" y="0">© 2020 TaekondaINC. All Rights Reserved.</tspan></text>
    </g>
    <g id="Group_5918" data-name="Group 5918" transform="translate(0 0)">
      <g id="Group_98" data-name="Group 98">
        <path id="Path_98" data-name="Path 98" d="M637.539,920.439h-2.986a.376.376,0,0,0-.376.376V929a.376.376,0,0,1-.376.376h-2.146a.376.376,0,0,1-.376-.376v-8.33a.377.377,0,0,1,.1-.261l2.793-2.907v.177h3.362a.376.376,0,0,1,.376.376v2A.376.376,0,0,1,637.539,920.439Z" transform="translate(-628.16 -909.241)" fill="#f8f8f8"/>
        <path id="Path_99" data-name="Path 99" d="M627.362,882.4a.376.376,0,0,1-.446.367,3.565,3.565,0,0,0-.6-.051,3.152,3.152,0,0,0-2.012.674,2.014,2.014,0,0,0-.526.628.373.373,0,0,0-.028.053,3.839,3.839,0,0,0-.343.794,9.687,9.687,0,0,0-.272,1.56.375.375,0,0,1-.089.243l-2.784,4.382a.376.376,0,0,1-.287.133h-2.482a.376.376,0,0,1-.376-.376v-2a.376.376,0,0,1,.376-.376h2.368a.376.376,0,0,0,.376-.376V887a9.625,9.625,0,0,1,.416-2.961,6.256,6.256,0,0,1,1.235-2.238,5.121,5.121,0,0,1,1.966-1.384,7.045,7.045,0,0,1,2.075-.417,7.278,7.278,0,0,1,.784-.01c.117.011.232.026.344.048a.378.378,0,0,1,.306.371Z" transform="translate(-617.116 -879.984)" fill="#f8f8f8"/>
      </g>
      <g id="Group_100" data-name="Group 100" transform="translate(82.53 1.634)">
        <rect id="Rectangle_42" data-name="Rectangle 42" width="6.713" height="1.675" transform="translate(12.853 0.253)" fill="#f8f8f8"/>
        <path id="Path_102" data-name="Path 102" d="M936.32,906.463a4.4,4.4,0,0,0-1.3-.95,4.316,4.316,0,0,0,.823-.823,4.222,4.222,0,0,0,.776-2.523,3.6,3.6,0,0,0-1.3-2.867,5.162,5.162,0,0,0-3.392-1.047H927.16V914.1H932a5.7,5.7,0,0,0,3.8-1.3,4.409,4.409,0,0,0,1.569-3.494A4.048,4.048,0,0,0,936.32,906.463Zm-6.314-5.542h1.421c2,0,2.273.852,2.273,1.6a1.891,1.891,0,0,1-.6,1.5,3.038,3.038,0,0,1-1.9.551h-1.2Zm3.774,9.906a2.863,2.863,0,0,1-1.972.572h-1.8v-4.164h1.425c2.693,0,2.994,1.175,2.994,2.04A1.868,1.868,0,0,1,933.779,910.826Z" transform="translate(-927.16 -898.246)" fill="#f8f8f8"/>
        <path id="Path_103" data-name="Path 103" d="M987.953,921.886a6.234,6.234,0,0,0-1.243-4.067,4.5,4.5,0,0,0-3.617-1.522,5.054,5.054,0,0,0-3.893,1.722,7.293,7.293,0,0,0-.1,8.786,4.9,4.9,0,0,0,3.893,1.62,6.635,6.635,0,0,0,4.02-1.124l.225-.153V924.1l-.9.721a4.631,4.631,0,0,1-2.917,1.047,2.752,2.752,0,0,1-2.1-.772,3.121,3.121,0,0,1-.746-1.772h7.383Zm-7.285-1.1a3.609,3.609,0,0,1,.75-1.272c.017-.021.034-.038.051-.059a2.178,2.178,0,0,1,3.07-.017,2.452,2.452,0,0,1,.547,1.349Z" transform="translate(-966.542 -912.317)" fill="#f8f8f8"/>
      </g>
      <g id="Group_93" data-name="Group 93" transform="translate(131.558 1.634)">
        <path id="Path_69" data-name="Path 69" d="M1138.638,899.209l-18.2,3.606,6.5,4.086,7.525-5.043-6.564,6.558,4.243,6.7Z" transform="translate(-1120.436 -899.209)" fill="#f8f8f8"/>
      </g>
      <g id="Group_103" data-name="Group 103" transform="translate(37.588 0.817)">
        <path id="Path_104" data-name="Path 104" d="M775.5,899.93H761.942a2.278,2.278,0,0,0-2.278,2.28v13.55a2.279,2.279,0,0,0,2.278,2.283H775.5a2.28,2.28,0,0,0,2.275-2.283V902.21A2.279,2.279,0,0,0,775.5,899.93Zm-1.905,9.689a4.938,4.938,0,0,1-4.236,4.236,5.037,5.037,0,0,1-.641.043,4.911,4.911,0,1,1,4.877-4.279Zm1.923-5.716a1.5,1.5,0,0,1-1.07.444,1.515,1.515,0,0,1-1.5-1.285,1.518,1.518,0,0,1,1.733-1.729,1.537,1.537,0,0,1,1.263,1.257A1.511,1.511,0,0,1,775.515,903.9Z" transform="translate(-759.664 -899.93)" fill="#f8f8f8"/>
        <path id="Path_105" data-name="Path 105" d="M791.162,929.043l0-.01v-.008l-.015-.111a.009.009,0,0,0,0-.008l-.015-.081a.413.413,0,0,0-.01-.053l-.02-.073c-.008-.033-.015-.063-.025-.1l-.005-.018c-.005-.018-.013-.033-.018-.051l-.1-.241a1.6,1.6,0,0,0-.081-.142.454.454,0,0,0-.038-.058l-.048-.068c-.01-.018-.026-.036-.038-.056l-.084-.1a.86.86,0,0,0-.094-.106l-.028-.028c-.02-.018-.035-.038-.056-.053l-.117-.1c-.02-.018-.043-.033-.066-.051l-.119-.086-.01-.008a.429.429,0,0,1-.056-.033.23.23,0,0,0-.035-.02l-.18-.091a.432.432,0,0,0-.071-.033l-.223-.078-.028-.01-.144-.033-.091-.015c-.051-.008-.091-.01-.132-.013l-.111-.013a.409.409,0,0,0-.056,0c-.068,0-.144.005-.243.01a2.064,2.064,0,0,0-1.781,1.229,2.2,2.2,0,0,0,2.858,2.937h0a2.076,2.076,0,0,0,1.3-2.027l-.01-.03Z" transform="translate(-779.946 -920.208)" fill="#f8f8f8"/>
      </g>
    </g>
  </g>
</svg>
