<svg xmlns="http://www.w3.org/2000/svg" width="1440" height="548" viewBox="0 0 1440 548">
  <g id="identity" transform="translate(5 -903)">
    <path id="Path_3021" data-name="Path 3021" d="M0,0H1440V548H0Z" transform="translate(-5 903)" opacity="0.78"/>
    <g id="Group_3998" data-name="Group 3998" transform="translate(111 127.301)">
      <text id="Identity_Design" data-name="Identity Design" transform="translate(447 870)" fill="#fff" font-size="47" font-family="Poppins-Bold, Poppins" font-weight="700" text-decoration="underline"><tspan x="0" y="0">Identity Design</tspan></text>
      <g id="Group_3997" data-name="Group 3997" transform="translate(-0.376 41)">
        <g id="Group_118" data-name="Group 118" transform="translate(356.376 1121.486) rotate(-57)">
          <path id="Path_111" data-name="Path 111" d="M1465.921,3717.876c-12.821,20.846-54.734,88.981-67.644,109.973a3.146,3.146,0,0,1-2.683,1.488h-.073a3.152,3.152,0,0,1-3.151-3.152h0V3736.5a3.157,3.157,0,0,1,2.022-2.938c17.344-6.742,13.932-34.815-5.924-35.984-21.447-1.595-27.15,28.691-8.522,35.984a3.14,3.14,0,0,1,1.985,2.927v89.7a3.152,3.152,0,0,1-3.151,3.152h-.065a3.147,3.147,0,0,1-2.683-1.488c-12.944-21.095-54.781-89.024-67.646-109.973a3.135,3.135,0,0,1-.02-3.256c7.713-12.93,32.917-53.158,40.948-66.5a3.143,3.143,0,0,1,2.7-1.521h70.232a3.143,3.143,0,0,1,2.712,1.549c8.012,13.58,33.161,53.411,40.949,66.463A3.14,3.14,0,0,1,1465.921,3717.876Z" transform="translate(-1307.922 -3618.347)" fill="#fff"/>
          <rect id="Rectangle_44" data-name="Rectangle 44" width="74.319" height="17.603" rx="8.801" transform="translate(42.076 0)" fill="#fff"/>
        </g>
        <g id="Group_3996" data-name="Group 3996" transform="translate(9 -53)">
          <g id="Path_5852" data-name="Path 5852" transform="translate(578 969)" fill="none" stroke-dasharray="26 15">
            <path d="M0,0H266V266H0Z" stroke="none"/>
            <path d="M 0 0 L 26 0 L 26 10 L 0 10 L 0 0 Z M 41 0 L 67 0 L 67 10 L 41 10 L 41 0 Z M 82 0 L 108 0 L 108 10 L 82 10 L 82 0 Z M 123 0 L 149 0 L 149 10 L 123 10 L 123 0 Z M 164 0 L 190 0 L 190 10 L 164 10 L 164 0 Z M 205 0 L 231 0 L 231 10 L 205 10 L 205 0 Z M 246 0 L 266 0 L 266 10 L 246 10 L 246 0 Z M 256 21 L 266 21 C 266 21 266 47 266 47 L 256 47 L 256 21 Z M 256 62 L 266 62 C 266 62 266 88 266 88 L 256 88 L 256 62 Z M 256 103 L 266 103 C 266 103 266 129 266 129 L 256 129 L 256 103 Z M 256 144 L 266 144 C 266 144 266 160.7082824707031 266 160.7082824707031 C 266 160.7082824707031 266 170 266 170 L 256 170 L 256 144 Z M 256 185 L 266 185 C 266 185 266 211 266 211 L 256 211 L 256 185 Z M 256 226 L 266 226 C 266 226 266 252 266 252 L 256 252 L 256 226 Z M 239 256 L 265 256 L 265 266 C 265 266 239 266 239 266 L 239 256 Z M 198 256 L 224 256 L 224 266 C 224 266 198 266 198 266 L 198 256 Z M 157 256 L 183 256 L 183 266 C 183 266 157 266 157 266 L 157 256 Z M 116 256 L 142 256 L 142 266 C 142 266 116 266 116 266 L 116 256 Z M 75 256 L 101 256 L 101 266 C 101 266 75 266 75 266 L 75 256 Z M 34 256 L 60 256 L 60 266 C 60 266 34 266 34 266 L 34 256 Z M 0 256 L 19 256 L 19 266 C 19 266 0 266 0 266 L 0 256 Z M 0 218 L 10 218 L 10 244 L 0 244 L 0 218 Z M 0 177 L 10 177 L 10 203 L 0 203 L 0 177 Z M 0 136 L 10 136 L 10 162 L 0 162 L 0 136 Z M 0 95 L 10 95 L 10 121 L 0 121 L 0 95 Z M 0 54 L 10 54 L 10 80 L 0 80 L 0 54 Z M 0 13 L 10 13 L 10 39 L 0 39 L 0 13 Z" stroke="none" fill="#f3f3f3"/>
          </g>
          <g id="Path_3019" data-name="Path 3019" transform="translate(652 1043)" fill="none">
            <path d="M59,0A59,59,0,1,1,0,59,59,59,0,0,1,59,0Z" stroke="none"/>
            <path d="M 59 11 C 32.53270721435547 11 11 32.53270721435547 11 59 C 11 85.46728515625 32.53270721435547 107 59 107 C 68.62036895751953 107 77.82697296142578 104.2152404785156 85.62523651123047 98.9462890625 C 99.00944519042969 89.90463256835938 107 74.97145080566406 107 59 C 107 32.53270721435547 85.46728515625 11 59 11 M 59 0 C 91.58479309082031 0 118 26.41520690917969 118 59 C 118 79.36550140380859 107.6815490722656 97.32099914550781 91.78286743164062 108.0613174438477 C 82.57099914550781 114.2853698730469 71.21928405761719 118 59 118 C 26.41520690917969 118 0 91.58479309082031 0 59 C 0 26.41520690917969 26.41520690917969 0 59 0 Z" stroke="none" fill="#d9f513"/>
          </g>
          <text id="Logo" transform="translate(660 1205)" fill="#fff" font-size="42" font-family="Poppins-Bold, Poppins" font-weight="700"><tspan x="0" y="0">Logo</tspan></text>
        </g>
      </g>
    </g>
  </g>
</svg>
