<svg xmlns="http://www.w3.org/2000/svg" viewBox="0 0 20.5 20.49"><g id="Layer_2" data-name="Layer 2"><g id="Layer_1-2" data-name="Layer 1"><g id="Group_103" data-name="Group 103"><path id="Path_104" data-name="Path 104" d="M17.92,0H2.58A2.57,2.57,0,0,0,0,2.58V17.91a2.58,2.58,0,0,0,2.58,2.58H17.92a2.59,2.59,0,0,0,2.58-2.58V2.58A2.58,2.58,0,0,0,17.92,0ZM15.76,11A5.59,5.59,0,0,1,11,15.76c-.24,0-.49,0-.73.05a5.56,5.56,0,1,1,5.57-5.55,5.49,5.49,0,0,1-.05.7ZM17.94,4.5a1.72,1.72,0,0,1-1.21.5l-.27,0a1.71,1.71,0,1,1,1.48-.48Z"/><path id="Path_105" data-name="Path 105" d="M12.69,10h0V9.85h0l0-.09s0,0,0-.06l0-.08a.43.43,0,0,0,0-.11v0s0,0,0-.06l-.12-.27L12.37,9l0-.07-.06-.07a.43.43,0,0,1,0-.07l-.1-.11a.4.4,0,0,0-.1-.12l0,0-.07-.06-.13-.11-.07-.06-.14-.1h0l-.06,0,0,0L11.28,8,11.2,8l-.26-.09,0,0-.16,0-.11,0-.14,0H10A2.37,2.37,0,0,0,8,9.19a2.49,2.49,0,0,0,1.24,3.3,2.45,2.45,0,0,0,2,0h0a2.34,2.34,0,0,0,1.46-2.29V10Z"/></g></g></g></svg>