<svg xmlns="http://www.w3.org/2000/svg" viewBox="0 0 44.57 45.03"><defs><style>.cls-1{fill:#7982fe;opacity:0.45;isolation:isolate;}</style></defs><g id="Layer_2" data-name="Layer 2"><g id="Layer_1-2" data-name="Layer 1"><path id="Path_5441" data-name="Path 5441" class="cls-1" d="M43.2,0H1.36A1.38,1.38,0,0,0,0,1.39H0V43.65A1.38,1.38,0,0,0,1.36,45H43.2a1.38,1.38,0,0,0,1.37-1.38V1.4A1.38,1.38,0,0,0,43.21,0ZM13.69,38.86H7V14.61h6.73Zm-.58-27.19a3.89,3.89,0,0,1-5.44,0,3.89,3.89,0,0,1,5.41-5.59,3.93,3.93,0,0,1,0,5.55ZM37.44,38.86H30.71V25.27c0-4.87-2.08-4.87-3.08-4.87a3.41,3.41,0,0,0-2.78,1.28,5.29,5.29,0,0,0-1.2,3.6V38.86H16.93V14.61h6.72v1a9.27,9.27,0,0,1,5.12-1.44A7.94,7.94,0,0,1,35.27,17c1.44,1.77,2.17,4.28,2.17,7.46Z"/></g></g></svg>