<svg xmlns="http://www.w3.org/2000/svg" viewBox="0 0 310.33 145.9"><defs><style>.cls-1{fill:#f2f2f2;}</style></defs><g id="Layer_2" data-name="Layer 2"><g id="Layer_1-2" data-name="Layer 1"><g id="Group_3860" data-name="Group 3860"><path id="Path_2526" data-name="Path 2526" class="cls-1" d="M177.64,114.14v31.74q-10.9-.67-22.25-.68-11.56,0-22.71.7V114.14Z"/><path id="Path_2527" data-name="Path 2527" class="cls-1" d="M177.64,0V31.75q-10.9-.67-22.25-.68-11.56,0-22.71.7V0Z"/><path id="Path_2528" data-name="Path 2528" class="cls-1" d="M307.28,79.58C286.41,56.1,237.92,40.14,180.7,37.9c-8.34-.32-16.73-.35-25-.1l-.57,0-.58,0c-8.23-.26-16.62-.22-25,.1C72.41,40.14,23.92,56.1,3.05,79.58L0,83l4.34-1.49c58.79-20.16,108.06-17.2,122.6,7.36.23.39.46.79.69,1.21a33.61,33.61,0,0,1,3.75,16.16v1.18l23.19.8v0l.6,0,.6,0v0l23.2-.8,0-1.18a33.61,33.61,0,0,1,3.75-16.16c.23-.42.46-.82.69-1.21C197.93,64.32,247.2,61.36,306,81.52L310.33,83Z"/></g></g></g></svg>