<svg xmlns="http://www.w3.org/2000/svg" viewBox="0 0 47.68 47.68"><defs><style>.cls-1{fill:#636363;}</style></defs><g id="Layer_2" data-name="Layer 2"><g id="Layer_1-2" data-name="Layer 1"><path id="Icon_awesome-pinterest" data-name="Icon awesome-pinterest" class="cls-1" d="M47.68,23.84A23.83,23.83,0,0,1,16.79,46.61a26.5,26.5,0,0,0,3-6.25l1.48-5.67c.78,1.48,3.05,2.74,5.46,2.74,7.19,0,12.37-6.61,12.37-14.83,0-7.87-6.43-13.76-14.7-13.76-10.28,0-15.75,6.9-15.75,14.42,0,3.5,1.87,7.86,4.84,9.24.45.21.69.12.8-.32s.48-1.95.66-2.7a.7.7,0,0,0-.16-.68A9.34,9.34,0,0,1,13,23.36,10.31,10.31,0,0,1,23.26,13h.49c5.86,0,10,4,10,9.7,0,6.45-3.26,10.92-7.5,10.92a3.46,3.46,0,0,1-3.63-3.28,3.57,3.57,0,0,1,.1-1c.68-2.83,2-5.89,2-7.94,0-1.82-1-3.35-3-3.35-2.39,0-4.31,2.47-4.31,5.78A8.46,8.46,0,0,0,18,27.36s-2.36,10-2.79,11.84A22.74,22.74,0,0,0,15.16,46a23.84,23.84,0,1,1,32.52-22.2Z"/></g></g></svg>