<svg xmlns="http://www.w3.org/2000/svg" width="39.803" height="39.803" viewBox="0 0 39.803 39.803">
  <g id="Group_5959" data-name="Group 5959" transform="translate(-1361 -697)">
    <g id="Icon_awesome-play-2" data-name="Icon awesome-play-2" transform="translate(1378 713)">
      <path id="Path_266" data-name="Path 266" d="M1224.374,486.7l-5.176-3.064a.7.7,0,0,0-1.068.61v6.122a.706.706,0,0,0,1.068.608l5.176-3.06a.7.7,0,0,0,0-1.215Z" transform="translate(-1218.129 -483.538)" fill="#070708"/>
    </g>
    <path id="Path_267" data-name="Path 267" d="M1234.908,506.814h-28.153a5.831,5.831,0,0,1-5.825-5.825V472.837a5.831,5.831,0,0,1,5.825-5.825h28.153a5.832,5.832,0,0,1,5.825,5.825v28.153A5.831,5.831,0,0,1,1234.908,506.814Zm-28.153-36.89a2.915,2.915,0,0,0-2.912,2.912v28.153a2.915,2.915,0,0,0,2.912,2.912h28.153a2.915,2.915,0,0,0,2.912-2.912V472.837a2.916,2.916,0,0,0-2.912-2.912Z" transform="translate(160.07 229.988)" fill="#070708"/>
  </g>
</svg>
