<svg xmlns="http://www.w3.org/2000/svg" xmlns:xlink="http://www.w3.org/1999/xlink" viewBox="0 0 271.67 229.56"><defs><style>.cls-1{fill:#ccc;}.cls-2{fill:url(#linear-gradient);}.cls-3{opacity:0.16;fill:url(#linear-gradient-2);}.cls-4{fill:url(#linear-gradient-3);}.cls-5,.cls-8{fill:#fff;}.cls-5{opacity:0.75;}.cls-6{fill:#fffb7e;}.cls-7{fill:#ff6868;}.cls-9{fill:#a7f6ff;}</style><linearGradient id="linear-gradient" x1="51.74" y1="216.37" x2="271.69" y2="217.41" gradientUnits="userSpaceOnUse"><stop offset="0" stop-color="#4d4d4d"/><stop offset="1" stop-color="#4d4d4d"/></linearGradient><linearGradient id="linear-gradient-2" x1="50.26" y1="227.05" x2="271.67" y2="227.05" gradientUnits="userSpaceOnUse"><stop offset="0" stop-color="#5e5e5e"/><stop offset="0.48" stop-color="#fbfbfb"/><stop offset="1" stop-color="#777"/></linearGradient><linearGradient id="linear-gradient-3" x1="51.75" y1="213.48" x2="271.67" y2="214.52" gradientUnits="userSpaceOnUse"><stop offset="0" stop-color="#b3b3b3"/><stop offset="0.32" stop-color="#444"/><stop offset="0.51"/><stop offset="1" stop-color="#e6e6e6"/></linearGradient></defs><g id="Layer_2" data-name="Layer 2"><g id="Layer_1-2" data-name="Layer 1"><path class="cls-1" d="M92.77,61.45V92.66l-1.1-.39L91,92V59.66Z"/><path class="cls-1" d="M92,109.81l.73.28v26.16L91,136V109.4Z"/><path class="cls-1" d="M271.67,215.74v1.36H101.85a13.39,13.39,0,0,1-5.61-1.21h0a9.27,9.27,0,0,1-1.54-.87l-.25-.17-.07-.05L94,214.5a9.05,9.05,0,0,1-1.38-1.39h0a6.62,6.62,0,0,1-.68-1l-.2-.37a6.49,6.49,0,0,1-.71-3V195.24c.14,0,.29,0,.44,0a3.18,3.18,0,0,0,1.33-.29v13.78a5.73,5.73,0,0,0,.88,3,2.92,2.92,0,0,0,.24.37,6.84,6.84,0,0,0,.88,1,8.66,8.66,0,0,0,1.93,1.39h0c.19.1.39.21.58.29l.11.05.4.17a11.39,11.39,0,0,0,4,.73Z"/><path class="cls-1" d="M271.67,14.1v1.36H101.85a11,11,0,0,0-5,1.16l-1.07-1.09a13.2,13.2,0,0,1,6.07-1.43Z"/><path class="cls-2" d="M271.67,212.1v9.64c-8.75,0-192.88.23-202.06,0-8.32-.2-15.88-4.62-17.52-5.64-.22-.13-.33-.21-.33-.21v-3.38a.41.41,0,0,1,.42-.41Z"/><polygon class="cls-3" points="271.67 224.53 271.67 229.56 50.26 229.56 68.07 224.53 271.67 224.53"/><path class="cls-4" d="M271.67,212.1v3.79H51.76v-3.38a.41.41,0,0,1,.42-.41Z"/><rect class="cls-5" x="237.34" y="212.1" width="34.33" height="4"/><path class="cls-6" d="M117.8,117.11c-.26.23-.63-.06-.93-.16-8.08-2.86-16.11-5.89-24.1-9L91,107.26l-1.37-.53q-5-2-10-4l-1.45-.58c-17.39-7-34.64-14.34-51.91-21.66Q14.1,75.38,2,70.27C.8,69.77,0,69,0,68.05a2.82,2.82,0,0,1,3.65-2.91c4.14,1.29,8.27,2.61,12.4,3.93C28.36,73,40.69,76.81,53,80.83,61,83.48,69,86.42,77,89.24l1.11.39,1.45.51,11.4,4,1.77.62,11.63,4.1a3.13,3.13,0,0,1,1.23.66,65.51,65.51,0,0,1,9.32,11,24,24,0,0,1,2.76,5.59C117.82,116.43,118.11,116.83,117.8,117.11Z"/><path class="cls-6" d="M135,122a1.33,1.33,0,0,1-1.48.42q-6.93-2-13.73-4.38a.66.66,0,0,1-.2-.06,2.73,2.73,0,0,0,0-2.55,25.82,25.82,0,0,0-3-6,59,59,0,0,0-7.18-8.87,252.79,252.79,0,0,1,25.33,10.14,4.5,4.5,0,0,1,2.79,4.1A8.94,8.94,0,0,1,135,122Z"/><path class="cls-6" d="M143.84,120.69a4.16,4.16,0,0,1-3.8,3,12.74,12.74,0,0,1-4-.57c-.58-.15-.68-.36-.24-.83a9.64,9.64,0,0,0,2.24-9c-.06-.21-.26-.5,0-.68s.42.07.61.17a13.89,13.89,0,0,1,4,2.88,5.69,5.69,0,0,1,1.34,2.82c.07.46.09.9-.7,1C144,119.76,144,120.19,143.84,120.69Z"/><path class="cls-6" d="M193.2,143.68c0,.16-.22.15-.35.15a40.11,40.11,0,0,1-9.08-.79,29.43,29.43,0,0,0,5.93-1.34,54.46,54.46,0,0,1-17.86-3.76.56.56,0,0,1,.63-.16,80.31,80.31,0,0,0,13,.66,3,3,0,0,1,2.36.93,26,26,0,0,0,5,3.85C193,143.32,193.27,143.39,193.2,143.68Z"/><path class="cls-6" d="M181.3,135.31c-.66-.29-1.17-.5-1.66-.73a233.64,233.64,0,0,0-34.08-12.77c-.37-.1-1,0-1-.67s.32-1,1.17-.77a139.28,139.28,0,0,1,13.11,5.16c5,2.17,10.11,3.88,15.22,5.7a25.32,25.32,0,0,1,6.52,3.3A1.63,1.63,0,0,1,181.3,135.31Z"/><path class="cls-6" d="M168.77,133.48c0,.06,0,.11,0,.16l-1.51-.37a94.55,94.55,0,0,1-21.55-8.57c-.51-.27-1.07-.48-1.55-.79-.31-.2-1-.15-.73-.84s.81-.9,1.57-.46c1.47.86,2.92,1.73,4.41,2.55a105.34,105.34,0,0,0,18.5,7.94l.7.25A1.37,1.37,0,0,1,168.77,133.48Z"/><path class="cls-6" d="M185.38,137.37a4,4,0,0,1-1.54-.25c-.26-.06-.48-.18,0-.27.18,0-.07-.22-.15-.25-1.16-.37-1.67-1.36-2.29-2.28a16.85,16.85,0,0,0-5.55-5,88.52,88.52,0,0,0-13.08-6,1.37,1.37,0,0,1-.85-.51,14.46,14.46,0,0,1,2.77.55,33.33,33.33,0,0,1,12.57,6.5,86.82,86.82,0,0,1,7.65,6.82C185.12,136.86,185.4,137,185.38,137.37Z"/><path class="cls-6" d="M199,145.07c-2.65-.86-11.91-9.62-14.61-13.81C189.48,135.5,194,140.41,199,145.07Z"/><path class="cls-6" d="M157.49,121.43c-2-.58-4-1.12-6-1.49a34.19,34.19,0,0,0-5.7-.64,1.13,1.13,0,0,1-1.22-1,1.38,1.38,0,0,1,0-.45c.12-.56.53-.27.8-.21,2.22.47,4.44,1,6.66,1.47a18.52,18.52,0,0,1,4.89,1.84C157.17,121,157.39,121.06,157.49,121.43Z"/><path class="cls-6" d="M146.41,126.85l-.12.21c-1.38-.76-3-1.07-4.1-2.34-.16-.18-.54-.37-.21-.67s.63-.55,1-.21C144.15,124.83,145.27,125.84,146.41,126.85Z"/><path class="cls-6" d="M148.29,116.83l0,.28c-1.22-.06-2.45-.08-3.67-.2A.78.78,0,0,1,144,116c.08-.47.53-.21.82-.16A18,18,0,0,1,148.29,116.83Z"/><path class="cls-7" d="M123.05,151c-5.77,7.85-24.1,32.87-30.28,41.28l-.32.44a1.26,1.26,0,0,1-1.21.5l-.24,0c-2.43-.37-6.72-1.09-11.4-1.89l-1.45-.24c-6.9-1.17-14.32-2.44-17.78-3a1.24,1.24,0,0,1-1-.77L48.78,161.25A1.29,1.29,0,0,1,49,160c3.83-5,14.82-20.38,18.49-25.24a1.26,1.26,0,0,1,1.21-.5l9.5,1.58,1.45.24L91,138l1.77.3,26.92,4.48a1.26,1.26,0,0,1,1,.78v0a1.27,1.27,0,0,1-.69,1.65l-27.2,11.07L91,157l-4.33,1.76a1.27,1.27,0,0,1-1.39-.31,6.89,6.89,0,0,0-5.68-2.15,8,8,0,0,0-1.45.26c-3.81,1.06-6.9,4.91-5.34,9.53A7,7,0,0,0,78.15,171a7.85,7.85,0,0,0,1.45.16c3.91.06,7.92-2.71,7.86-7.34a1.25,1.25,0,0,1,.79-1.18L91,161.52l1.77-.72,28.78-11.71a1.25,1.25,0,0,1,1.64.69v0A1.26,1.26,0,0,1,123.05,151Z"/><path class="cls-8" d="M130.66,76.13a1.32,1.32,0,0,1-.71,0l-16.13-4.39a2.26,2.26,0,0,1,1.12-.37,14.92,14.92,0,0,0,7.77-4l.14-.14a15.09,15.09,0,0,0,4.33-8.28,1.07,1.07,0,0,1,.19-.6l4.25,16.13A1.36,1.36,0,0,1,130.66,76.13Z"/><path class="cls-9" d="M130.66,76.13a1.32,1.32,0,0,1-.71,0l-16.13-4.39a2.26,2.26,0,0,1,1.12-.37,14.92,14.92,0,0,0,7.77-4l.14-.14a15.09,15.09,0,0,0,4.33-8.28,1.07,1.07,0,0,1,.19-.6l4.25,16.13A1.36,1.36,0,0,1,130.66,76.13Z"/><path class="cls-9" d="M121.68,44.45a6,6,0,0,0-6.47,6,6.89,6.89,0,0,0-9.26,9.2,6,6,0,0,0-6,6.14.64.64,0,0,1-.15-.13l-7-7L91,56.82l-5.37-5.41L84.5,50.25l-4.89-4.93-1.45-1.45-21.84-22a1.36,1.36,0,0,1,0-1.92L76,.4a1.36,1.36,0,0,1,1.92,0h0L94.05,16.64l1.09,1.09,10.73,10.81L107.3,30,117.64,40.4l1.16,1.16,2.84,2.88,0,0Z"/></g></g></svg>