<svg xmlns="http://www.w3.org/2000/svg" viewBox="0 0 36 36"><defs><style>.cls-1{fill:#d3f00d;}.cls-2{stroke:#000;stroke-miterlimit:10;stroke-width:0.5px;}</style></defs><g id="Layer_2" data-name="Layer 2"><g id="Layer_1-2" data-name="Layer 1"><rect id="Rectangle_94" data-name="Rectangle 94" class="cls-1" width="36" height="36"/><path class="cls-2" d="M22.75,12.81a.09.09,0,0,1,0-.05.34.34,0,0,0-.25-.25h-.22l-11,3.86a.36.36,0,0,0-.25.33.36.36,0,0,0,.22.35l4.83,2.15L18.2,24a.36.36,0,0,0,.33.22h0a.36.36,0,0,0,.33-.25l3.86-11a0,0,0,0,1,0,0A.76.76,0,0,0,22.75,12.81ZM21,13.74l-4.74,4.74-3.89-1.72Zm-2.5,9.15L16.77,19l4.74-4.74Z"/></g></g></svg>