<?xml version="1.0" encoding="utf-8"?>
<!-- Generator: Adobe Illustrator 24.2.3, SVG Export Plug-In . SVG Version: 6.00 Build 0)  -->
<svg version="1.1" id="Layer_1" xmlns="http://www.w3.org/2000/svg" xmlns:xlink="http://www.w3.org/1999/xlink" x="0px" y="0px"
	 viewBox="0 0 259.9 139.1" style="enable-background:new 0 0 259.9 139.1;" xml:space="preserve">
<style type="text/css">
	.st0{fill:none;stroke:#3F7191;stroke-width:5;stroke-linecap:round;stroke-linejoin:round;}
</style>
<g id="Layer_2_1_">
	<g id="Layer_1-2">
		<path class="st0" d="M250,136.3L131,17c-0.5-0.5-1.3-0.5-1.8,0c0,0,0,0,0,0L9.9,136c-0.5,0.5-1.3,0.5-1.8,0l-5.2-5.3
			c-0.5-0.5-0.5-1.3,0-1.8c0,0,0,0,0,0L123,9l6.2-6.1c0.5-0.5,1.3-0.5,1.8,0c0,0,0,0,0,0l6.1,6.2L257,129.2c0.5,0.5,0.5,1.3,0,1.8
			l-5.2,5.2C251.3,136.8,250.5,136.8,250,136.3z"/>
	</g>
</g>
</svg>
