<svg xmlns="http://www.w3.org/2000/svg" viewBox="0 0 59 59"><defs><style>.cls-1,.cls-2{fill:none;}.cls-2{stroke:#585858;stroke-width:2px;}.cls-3{fill:#585858;}</style></defs><g id="Layer_2" data-name="Layer 2"><g id="Layer_1-2" data-name="Layer 1"><g id="Group_440" data-name="Group 440"><g id="Rectangle_99" data-name="Rectangle 99"><rect class="cls-1" width="59" height="59" rx="5"/><rect class="cls-2" x="1" y="1" width="57" height="57" rx="4"/></g><path id="Icon_awesome-angle-up" data-name="Icon awesome-angle-up" class="cls-3" d="M30.69,22.73l9.57,9.56a1.68,1.68,0,0,1,0,2.38h0l-1.59,1.59a1.69,1.69,0,0,1-2.38,0h0L29.5,29.49l-6.78,6.78a1.69,1.69,0,0,1-2.38,0h0l-1.6-1.59a1.69,1.69,0,0,1,0-2.38h0l9.56-9.56a1.68,1.68,0,0,1,2.38,0Z"/></g></g></g></svg>